<?xml version="1.0" encoding="UTF-8"?>
<svg viewBox="0 0 235.55121 293.00507" xmlns="http://www.w3.org/2000/svg" xmlns:xlink="http://www.w3.org/1999/xlink">
 <defs>
  <linearGradient id="a" x2="0" y1="12.186" y2="140.5" gradientUnits="userSpaceOnUse">
   <stop stop-color="#ccc" offset="0"/>
   <stop stop-color="#999e9e" offset="1"/>
  </linearGradient>
  <linearGradient id="b" x1="285.59" x2="244.15" gradientUnits="userSpaceOnUse">
   <stop stop-color="#e3e3e3" offset="0"/>
   <stop stop-color="#999e9e" offset="1"/>
  </linearGradient>
  <linearGradient id="c" x1="290.58" x2="239.13" gradientUnits="userSpaceOnUse">
   <stop stop-color="#8e8e8e" offset="0"/>
   <stop stop-color="#353535" offset="1"/>
  </linearGradient>
  <linearGradient id="d" x2="0" y1="130.07" y2="520.98" gradientUnits="userSpaceOnUse">
   <stop stop-color="#e3e3e3" offset="0"/>
   <stop stop-color="#999e9e" offset="1"/>
  </linearGradient>
  <linearGradient id="e" x2="0" y1="445.52" y2="156.44" gradientUnits="userSpaceOnUse">
   <stop stop-color="#e3e3e3" offset="0"/>
   <stop stop-color="#404040" offset="1"/>
  </linearGradient>
  <linearGradient id="f" x2="0" y1="303" y2="167.67" gradientUnits="userSpaceOnUse">
   <stop stop-color="#e0e0e0" offset="0"/>
   <stop stop-color="#fff" offset="1"/>
  </linearGradient>
  <linearGradient id="g" x2="0" y1="11.418" y2="31.412" gradientUnits="userSpaceOnUse" xlink:type="simple">
   <stop stop-color="#e0e0e0" offset="0"/>
   <stop stop-color="#cfcfe3" offset=".747"/>
   <stop stop-color="#ababbf" offset="1"/>
  </linearGradient>
  <linearGradient id="h" x1="-716.13" x2="-720.03" gradientTransform="matrix(.5083 -.8612 .8612 .5083 -581.31 -1167.2)" gradientUnits="userSpaceOnUse" xlink:type="simple">
   <stop stop-color="#8e8e8e" offset="0"/>
   <stop stop-color="#353535" offset="1"/>
  </linearGradient>
  <linearGradient id="i" x1="-716.65" x2="-719.44" gradientTransform="matrix(.5083 -.8612 .8612 .5083 -581.31 -1167.2)" gradientUnits="userSpaceOnUse" xlink:type="simple">
   <stop stop-color="#8e8e8e" offset="0"/>
   <stop stop-color="#353535" offset="1"/>
  </linearGradient>
  <linearGradient id="j" x1="-716.92" x2="-719.17" gradientTransform="matrix(.5083 -.8612 .8612 .5083 -581.31 -1167.2)" gradientUnits="userSpaceOnUse" xlink:type="simple">
   <stop stop-color="#e3e3e3" offset="0"/>
   <stop stop-color="#999e9e" offset="1"/>
  </linearGradient>
  <linearGradient id="k" x1="20.301" x2="30.116" gradientUnits="userSpaceOnUse" xlink:type="simple">
   <stop stop-color="#f90000" offset="0"/>
   <stop stop-color="#ababbf" offset="1"/>
  </linearGradient>
 </defs>
 <g transform="matrix(.61604 0 0 .61604 -36.233 -7.5062)">
  <path d="m314.5 142.48c15.816-13.555 25.853-33.656 25.881-56.159-0.0279-40.957-33.196-74.111-74.111-74.139-40.916 0.014-74.125 33.196-74.125 74.111 0 22.182 9.7438 42.018 25.155 55.545-35.108 9.8415-65.778 30.25-88.392 57.583l-10.204-6.0305 3.6574-6.226-25.825-15.23-37.719 63.963 25.741 15.216 4.16-7.0217 10.847 6.4074c-7.0496 18.999-11 39.561-11 61.031 0 95.665 76.177 173.53 171.27 176.2l0.0419 0.0838h5.0115c97.34-0.0279 176.24-78.927 176.3-176.28-0.0558-80.156-53.507-147.64-126.68-169.05zm-13.918-28.422v-34.885h-71.306v31.339c-4.5787-6.9519-7.245-15.258-7.2729-24.22 0.0558-24.429 19.795-44.21 44.252-44.252 24.429 0.0698 44.168 19.836 44.21 44.252 0 10.54-3.7132 20.2-9.8834 27.766z" fill-opacity=".2"/>
  <path d="m287.33 146.84c25.071-8.7387 43.065-32.484 43.065-60.515 0-35.443-28.729-64.144-64.172-64.144-35.415 0-64.144 28.715-64.158 64.144 0.014 27.682 17.561 51.176 42.158 60.194v0.0698c-47.476 5.9049-88.713 31.73-115.07 68.946l-5.514-3.2247 1.9264-3.2247-20.534-12.145 3.6434-6.226-8.6549-5.1231-27.626 46.848 8.641 5.0813 4.146-7.0356 20.548 12.145 1.9543-3.2107 5.7932 3.4201c-9.5344 20.981-14.993 44.182-14.993 68.695 0 91.868 74.474 166.37 166.36 166.37 91.854 0 166.34-74.502 166.34-166.37 0.014-84.274-62.65-153.69-143.85-164.7zm-75.27-60.543c0.0419-29.943 24.248-54.135 54.191-54.205 29.929 0.0279 54.163 24.262 54.163 54.205 0 23.047-14.434 42.716-34.745 50.548v-20.73h4.9696v-26.956h-51.413v26.956h4.9696v19.627c-18.929-8.4316-32.135-27.347-32.135-49.445z" fill-opacity=".4"/>
  <path d="m202.06 76.343c0.014-35.429 28.757-64.158 64.158-64.158 35.457 0 64.172 28.743 64.172 64.158 0 35.457-28.729 64.158-64.172 64.158-35.402 0-64.13-28.701-64.158-64.158zm10.009 0c0.0419 29.943 24.248 54.135 54.191 54.219 29.929-0.0838 54.163-24.276 54.163-54.219s-24.234-54.135-54.163-54.205c-29.943 0.0977-54.149 24.29-54.191 54.205z" fill="url(#a)"/>
  <path d="m244.21 89.158h41.446v60.961h-41.446z" fill="url(#b)"/>
  <path d="m239.2 79.177h51.455v26.956h-51.455z" fill="url(#c)"/>
  <path transform="matrix(13.96 0 0 13.96 -15.979 2.0501)" d="m7.465 15.463 1.144-1.941 1.859 1.099-1.143 1.938z" fill="url(#j)"/>
  <path transform="matrix(13.96 0 0 13.96 -15.979 2.0501)" d="m6.861 15.421 1.42-2.406 1.859 1.098-1.42 2.406z" fill="url(#i)"/>
  <path transform="matrix(13.96 0 0 13.96 -15.979 2.0501)" d="m6.332,15.787 1.979-3.354 .619.367-1.979,3.354z" fill="url(#h)"/>
  <path d="m264.86 135.21v-0.0279c-91.868 0.0279-166.36 74.516-166.36 166.38 0 91.84 74.474 166.31 166.36 166.31s166.34-74.474 166.34-166.31c0-91.91-74.488-166.36-166.34-166.36z" fill="url(#d)"/>
  <path d="m120.36 301.55c0-79.835 64.689-144.52 144.52-144.54v9.9113c-74.335 0-134.56 60.291-134.56 134.6 0.1117 74.293 60.222 134.42 134.56 134.54 74.335 0 134.54-60.236 134.6-134.54-0.0558-74.307-60.305-134.58-134.6-134.58v-9.9113c79.793 0 144.48 64.73 144.54 144.54-0.0558 79.807-64.744 144.54-144.54 144.54-79.835 0-144.52-64.73-144.52-144.55z" fill="url(#e)"/>
  <path transform="matrix(13.96 0 0 13.96 -15.979 2.0501)" d="m30.117 21.453a9.997 9.997 0 1 0 -19.994 0 9.997 9.997 0 1 0 19.994 0" fill="url(#g)"/>
  <path d="m398.98 303.58c0-74.726-59.956-135.31-133.9-135.34-73.986 0.014-133.94 60.612-133.94 135.34h267.84z" fill="url(#f)"/>
  <g transform="matrix(13.96 0 0 13.96 -15.979 2.0501)" fill-opacity=".7">
   <path d="m20.3,11.467v11.331l7.626,4.89c1.368-1.711 2.189-3.875 2.189-6.232-.001-5.46-4.378-9.891-9.815-9.989z" fill="url(#k)"/>
  </g>
 </g>
</svg>
