<?xml version="1.0" encoding="UTF-8"?>
<svg width="120.93mm" height="197.43mm" version="1.1" viewBox="0 0 428.48153 699.5519" xmlns="http://www.w3.org/2000/svg">
 <defs>
  <filter id="c" x="-.028602" y="-.48196" width="1.0572" height="1.9639" color-interpolation-filters="sRGB">
   <feGaussianBlur stdDeviation="4.3146444"/>
  </filter>
  <linearGradient id="a" x1="-2031.7" x2="-1762.4" y1="963.1" y2="791.1" gradientTransform="translate(33.941 38.184)" gradientUnits="userSpaceOnUse">
   <stop stop-color="#600000" offset="0"/>
   <stop stop-color="#ff8080" offset="1"/>
  </linearGradient>
  <radialGradient id="e" cx="1202.2" cy="759.04" r="9.0515" gradientTransform="matrix(.14566 0 0 .59471 571.31 446.27)" gradientUnits="userSpaceOnUse">
   <stop stop-color="#00f" offset="0"/>
   <stop stop-color="#ff0" offset="1"/>
  </radialGradient>
  <filter id="d" x="-.082178" y="-.58132" width="1.1644" height="2.1626" color-interpolation-filters="sRGB">
   <feGaussianBlur stdDeviation="0.36139413"/>
  </filter>
 </defs>
 <g transform="translate(-100.04 -119.73)">
  <g transform="translate(2097.8 -476.36)">
   <ellipse transform="matrix(1 0 0 2.4481 0 -1839.5)" cx="-1760.7" cy="1259.6" rx="181.02" ry="10.743" color="#000000" color-rendering="auto" fill-rule="evenodd" filter="url(#c)" image-rendering="auto" shape-rendering="auto" solid-color="#000000" style="isolation:auto;mix-blend-mode:normal"/>
   <path d="m-1809.3 1139.8c0.1708 0.3755 0.3146 0.8478 0.4883 1.2129 1.3331 2.7196 2.7389 5.2687 4.2187 7.6484 1.4798 2.3796 3.0337 4.5892 4.6602 6.6289 1.6264 2.0397 3.3246 3.9096 5.0976 5.6094 1.7731 1.6997 3.6213 3.23 5.5411 4.5898 1.9197 1.3598 3.9121 2.5505 5.9785 3.5703 2.0663 1.0199 4.2049 1.869 6.4179 2.5489 2.2131 0.6799 4.4998 1.1893 6.8594 1.5293 2.3597 0.3399 4.7925 0.5097 7.2988 0.5097 3.3062 0 6.5006-0.2861 9.5801-0.8594 3.0796-0.5732 6.0456-1.4335 8.8985-2.58s5.5924-2.5791 8.2187-4.2989c2.6263-1.7197 5.1394-3.7265 7.5391-6.0195 1.2265-1.1732 2.4115-2.4297 3.5547-3.7695 1.1431-1.3398 2.2428-2.7631 3.3027-4.2696 2.1197-3.0129 4.073-6.3576 5.8594-10.037s3.4062-7.693 4.8593-12.039c1.4532-4.3461 2.7396-9.0245 3.8594-14.037 1.1732-5.0126 2.2002-10.726 3.0801-17.139s1.6126-13.524 2.1992-21.336 1.027-16.325 1.3203-25.537 0.4395-19.124 0.4395-29.736c0-7.7856-0.083-15.251-0.25-22.396-0.1667-7.1456-0.4167-13.971-0.75-20.477-0.3333-6.5057-0.7501-12.691-1.25-18.557s-1.0815-11.413-1.7481-16.639c-0.6665-5.2259-1.4168-10.131-2.25-14.717s-1.7501-8.8527-2.75-12.799c-0.9998-3.9461-2.0835-7.5727-3.25-10.879-1.1665-3.3062-2.4168-6.2927-3.75-8.959-1.3064-2.6929-2.6948-5.2159-4.1679-7.5723-1.4732-2.3563-3.0302-4.5448-4.67-6.5645-1.6397-2.0197-3.3635-3.8716-5.1699-5.5547s-3.6949-3.1984-5.6679-4.5449c-1.9731-1.3465-4.0303-2.5234-6.17-3.5332s-4.3616-1.8522-6.6679-2.5254c-2.3064-0.67324-4.697-1.179-7.17-1.5156-2.4729-0.33661-5.0283-0.5039-7.6679-0.5039-2.693 0-5.2925 0.17234-7.7989 0.51562-0.1102 0.0151-0.2084 0.0526-0.3183 0.0684 10.291 21.665 15.467 62.971 15.467 124.15 0 42.447-2.3464 73.698-7.0391 93.748-4.4792 20.05-11.624 34.767-21.436 44.152-7.2337 6.9121-15.503 11.207-24.797 12.91z" fill="#600000"/>
   <path d="m-1631.6 819.77c-3.1995-3.1462-6.6327-6.1409-10.299-8.9805-3.6662-2.8396-7.5646-5.5256-11.697-8.0586s-8.5003-4.9123-13.1-7.1387c-4.5994-2.2264-9.4321-4.299-14.498-6.2188-2.5329-0.98653-5.1536-1.9122-7.8632-2.7754-2.7096-0.86321-5.5064-1.6644-8.3926-2.4043-5.7725-1.4798-11.9-2.7127-18.379-3.6992-6.4791-0.98652-13.31-1.7255-20.496-2.2188s-14.725-0.74023-22.617-0.74023c-8.2122 0-16.163 0.27739-23.852 0.83398s-15.116 1.3927-22.281 2.5059c-7.1657 1.1132-14.07 2.5041-20.713 4.1738-3.3212 0.83488-6.5772 1.7389-9.7676 2.7129-3.1904 0.97402-6.3154 2.0177-9.375 3.1309s-6.0537 2.2965-8.9824 3.5488c-2.9288 1.2523-5.7919 2.5734-8.5899 3.9648-2.7979 1.3915-5.5301 2.8522-8.1972 4.3828s-5.2684 3.131-7.8047 4.8008-5.0066 3.4098-7.4121 5.2188c-2.4055 1.8089-4.7468 3.6867-7.0215 5.6348s-4.4831 3.9655-6.627 6.0527c-2.1438 2.0872-4.2232 4.2444-6.2363 6.4707-1.9997 2.2263-3.9358 4.5567-5.8105 6.9922-1.8748 2.4355-3.6878 4.9765-5.4375 7.6211-1.7498 2.6446-3.4358 5.3943-5.0606 8.248-1.6247 2.8538-3.1877 5.8121-4.6875 8.875s-2.9377 6.2299-4.3125 9.502-2.6857 6.6477-3.9355 10.129c-1.2498 3.4812-2.4377 7.0675-3.5625 10.758-1.1249 3.6903-2.1877 7.4853-3.1875 11.385-1.9997 7.7989-3.7502 16.015-5.25 24.65s-2.7482 17.69-3.7481 27.162c-0.9998 9.472-1.75 19.361-2.25 29.67-0.4999 10.309-0.75 21.037-0.75 32.182 0 9.0653 0.1935 17.936 0.5801 26.615 0.3866 8.6787 0.967 17.165 1.7402 25.457 0.7733 8.2921 1.7386 16.389 2.8985 24.295 1.1598 7.9055 2.5141 15.618 4.0605 23.137 1.5998 7.4656 3.3515 14.54 5.2578 21.219 1.9064 6.679 3.9667 12.963 6.1797 18.855 2.213 5.8925 4.58 11.392 7.0996 16.498 2.5197 5.1059 5.1913 9.8193 8.0176 14.139 1.9464 3.0395 3.9619 5.9875 6.0449 8.8437 2.0831 2.8563 4.2335 5.62 6.4532 8.293 2.2196 2.6729 4.5089 5.2545 6.8652 7.7441 2.3563 2.4897 4.7805 4.8871 7.2734 7.1934 2.493 2.3063 5.054 4.5215 7.6836 6.6445s5.3275 4.1541 8.0938 6.0938c2.7662 1.9397 5.601 3.7885 8.5039 5.5449s5.8745 3.421 8.914 4.9941c1.8085 0.936 3.7446 1.7665 5.6368 2.6328 8.1493 3.2049 16.395 6.1039 24.703 8.8086 0.016 0 0.031 0.01 0.047 0.014l10.443-23.162c3.6509 0.1182 7.0378 0.4609 10.828 0.4609 70.39 0 119.97-19.717 148.77-59.178 28.796-39.461 43.205-101.75 43.205-186.85 0-37.968-4.3855-74.442-13.131-109.42-3.3971-13.912-7.6567-26.465-12.772-37.678l8.8047-19.555v-4e-3zm-187.82 11.473c21.117 0 36.9 10.771 47.352 32.314 0.1889 0.37781 0.3457 0.87887 0.5313 1.2695 0.1099-0.0158 0.2081-0.0533 0.3183-0.0684 2.5064-0.34328 5.1059-0.51562 7.7989-0.51562 2.6396 0 5.195 0.16729 7.6679 0.5039 2.473 0.33662 4.8636 0.84239 7.17 1.5156 2.3063 0.67323 4.5282 1.5155 6.6679 2.5254s4.1969 2.1867 6.17 3.5332c1.973 1.3465 3.8615 2.8618 5.6679 4.5449s3.5302 3.535 5.1699 5.5547c1.6398 2.0197 3.1968 4.2081 4.67 6.5645 1.4731 2.3563 2.8615 4.8793 4.1679 7.5723 1.3332 2.6663 2.5835 5.6528 3.75 8.959s2.2502 6.9328 3.25 10.879c0.9999 3.9461 1.9168 8.2128 2.75 12.799s1.5835 9.4909 2.25 14.717c0.6666 5.2259 1.2482 10.773 1.7481 16.639s0.9167 12.051 1.25 18.557c0.3333 6.5057 0.5833 13.331 0.75 20.477 0.1666 7.1456 0.25 14.611 0.25 22.397 0 10.612-0.1462 20.524-0.4395 29.736s-0.7337 17.725-1.3203 25.537-1.3193 14.924-2.1992 21.336-1.9069 12.126-3.0801 17.139c-1.1198 5.0126-2.4062 9.691-3.8594 14.037-1.4531 4.346-3.0729 8.3596-4.8593 12.039-1.7864 3.6795-3.7397 7.0242-5.8594 10.037-1.0599 1.5065-2.1596 2.9298-3.3027 4.2696-1.1432 1.3398-2.3282 2.5963-3.5547 3.7695-2.3997 2.293-4.9128 4.2998-7.5391 6.0195-2.6263 1.7198-5.3658 3.1524-8.2187 4.2989s-5.8189 2.0068-8.8985 2.58c-3.0795 0.5733-6.2739 0.8594-9.5801 0.8594-2.5063 0-4.9391-0.1698-7.2988-0.5097-2.3596-0.34-4.6463-0.8494-6.8594-1.5293-2.213-0.6799-4.3516-1.529-6.4179-2.5489-2.0664-1.0198-4.0588-2.2105-5.9785-3.5703-1.9198-1.3598-3.768-2.8901-5.5411-4.5898-1.773-1.6998-3.4712-3.5697-5.0976-5.6094-1.6265-2.0397-3.1804-4.2493-4.6602-6.6289-1.4798-2.3797-2.8856-4.9288-4.2187-7.6484-0.1737-0.3651-0.3175-0.8374-0.4883-1.2129-3.0383 0.5567-6.1811 0.8476-9.4395 0.8476-20.05 0-35.407-10.878-46.072-32.635-10.452-21.97-15.678-62.818-15.678-122.54 0-59.085 4.7979-99.505 14.396-121.26 9.5986-21.97 25.171-32.955 46.715-32.955z" fill="url(#a)"/>
   <path d="m-1803 747.41c-65.697 0-114.64 17.822-146.85 53.443-31.995 35.622-47.994 98-47.994 187.16 0 36.261 3.0817 69.444 9.2675 99.52 6.3991 29.862 15.263 53.42 26.568 70.697 9.6032 14.997 20.861 27.753 33.787 38.291v0.027c22.658 24.751 48.585 39.132 75.69 49.791-1.8922-0.8663-3.8283-1.6968-5.6368-2.6328-3.0395-1.5731-6.0111-3.2377-8.914-4.9941s-5.7377-3.6052-8.5039-5.5449c-2.7663-1.9397-5.4642-3.9708-8.0938-6.0938s-5.1906-4.3382-7.6836-6.6445c-2.4929-2.3063-4.9171-4.7037-7.2734-7.1934-2.3563-2.4896-4.6456-5.0712-6.8652-7.7441-2.2197-2.673-4.3701-5.4367-6.4532-8.293-2.083-2.8562-4.0985-5.8042-6.0449-8.8437-2.8263-4.3194-5.4979-9.0328-8.0176-14.139-2.5196-5.1059-4.8866-10.606-7.0996-16.498-2.213-5.8924-4.2733-12.176-6.1797-18.855-1.9063-6.6791-3.658-13.753-5.2578-21.219-1.5464-7.5189-2.9007-15.231-4.0605-23.137-1.1599-7.9055-2.1252-16.003-2.8985-24.295-0.7732-8.2921-1.3536-16.778-1.7402-25.457-0.3866-8.6788-0.5801-17.55-0.5801-26.615 0-11.145 0.2501-21.873 0.75-32.182 0.5-10.309 1.2502-20.198 2.25-29.67 0.9999-9.472 2.2483-18.527 3.7481-27.162s3.2503-16.852 5.25-24.65c0.9998-3.8994 2.0626-7.6945 3.1875-11.385 1.1248-3.6903 2.3127-7.2766 3.5625-10.758 1.2498-3.4812 2.5607-6.8569 3.9355-10.129s2.8127-6.4391 4.3125-9.502 3.0628-6.0212 4.6875-8.875c1.6248-2.8538 3.3108-5.6034 5.0606-8.248 1.7497-2.6446 3.5627-5.1856 5.4375-7.6211 1.8747-2.4355 3.8108-4.7658 5.8105-6.9922 2.0131-2.2264 4.0925-4.3835 6.2363-6.4707 2.1439-2.0872 4.3523-4.1047 6.627-6.0527s4.616-3.8259 7.0215-5.6348 4.8758-3.549 7.4121-5.2188 5.1376-3.2702 7.8047-4.8008 5.3993-2.9913 8.1972-4.3828c2.798-1.3915 5.6611-2.7125 8.5899-3.9648 2.9287-1.2523 5.9228-2.4357 8.9824-3.5488s6.1846-2.1568 9.375-3.1309c3.1904-0.97403 6.4464-1.878 9.7676-2.7129 6.6424-1.6698 13.547-3.0607 20.713-4.1738 7.1656-1.1132 14.592-1.9493 22.281-2.5059s15.639-0.83398 23.852-0.83398c7.8922 0 15.432 0.24697 22.617 0.74023s14.017 1.2322 20.496 2.2188c6.479 0.98652 12.606 2.2194 18.379 3.6992 2.8862 0.73989 5.683 1.5411 8.3926 2.4043s5.3303 1.7889 7.8632 2.7754c5.066 1.9197 9.8987 3.9924 14.498 6.2188s8.9669 4.6057 13.1 7.1387 8.0311 5.219 11.697 8.0586c3.6661 2.8396 7.0993 5.8343 10.299 8.9805-20.453-20.242-45.002-37.202-73.176-51.268l-0.078 0.17969c-6.3529-3.4189-13.017-6.6394-20.35-9.418-20.264-7.8923-46.193-11.852-77.762-11.852v-2e-3z" fill="url(#a)"/>
   <path d="m-1953.8 1018.1q0-133.74 47.993-187.17 48.313-53.432 146.86-53.432 47.353 0 77.749 11.838 30.396 11.518 49.593 30.396 19.197 18.557 30.076 39.354 11.198 20.477 17.917 47.993 13.118 52.472 13.118 109.42 0 127.66-43.194 186.85-43.194 59.191-148.78 59.191-59.191 0-95.666-18.877t-59.831-55.352q-16.958-25.916-26.556-70.71-9.2787-45.113-9.2787-99.506zm129.26 0.3198q0 89.587 15.678 122.54 15.998 32.635 46.074 32.635 19.837 0 34.235-13.758 14.718-14.078 21.437-44.154 7.039-30.076 7.039-93.746 0-93.427-15.998-125.42-15.678-32.315-47.353-32.315-32.315 0-46.713 32.955-14.398 32.635-14.398 121.26z" fill="#f00"/>
   <g transform="matrix(13.105 0 0 13.105 -10719 -11053)" fill="none" stroke="#000" stroke-width=".76305">
    <path d="m670.05 921.38q0-9.1565 3.2858-12.815 3.3078-3.6582 10.055-3.6582 3.242 0 5.323 0.8105 2.081 0.7886 3.3954 2.081 1.3143 1.2705 2.0591 2.6944 0.7667 1.402 1.2267 3.2858 0.89813 3.5925 0.89813 7.4917 0 8.7403-2.9572 12.793-2.9572 4.0525-10.186 4.0525-4.0525 0-6.5498-1.2924-2.4972-1.2924-4.0963-3.7897-1.161-1.7744-1.8182-4.8411-0.63526-3.0887-0.63526-6.8126z"/>
    <path d="m677.03 921.38q0 7.5557 1.5427 10.335 1.5742 2.7524 4.5336 2.7524 1.952 0 3.3687-1.1603 1.4482-1.1873 2.1094-3.7239 0.69264-2.5366 0.69264-7.9065 0-7.8796-1.5742-10.578-1.5427-2.7255-4.6596-2.7255-3.1798 0-4.5966 2.7794-1.4168 2.7524-1.4168 10.227z"/>
   </g>
   <g transform="matrix(13.105 0 0 13.105 -10715 -11057)" fill="none" stroke="#fff" stroke-width=".76305">
    <path d="m670.05 921.38q0-9.1565 3.2858-12.815 3.3078-3.6582 10.055-3.6582 3.242 0 5.323 0.8105 2.081 0.7886 3.3954 2.081 1.3143 1.2705 2.0591 2.6944 0.7667 1.402 1.2267 3.2858 0.89813 3.5925 0.89813 7.4917 0 8.7403-2.9572 12.793-2.9572 4.0525-10.186 4.0525-4.0525 0-6.5498-1.2924-2.4972-1.2924-4.0963-3.7897-1.161-1.7744-1.8182-4.8411-0.63526-3.0887-0.63526-6.8126z"/>
    <path d="m677.03 921.38q0 7.5557 1.5427 10.335 1.5742 2.7524 4.5336 2.7524 1.952 0 3.3687-1.1603 1.4482-1.1873 2.1094-3.7239 0.69264-2.5366 0.69264-7.9065 0-7.8796-1.5742-10.578-1.5427-2.7255-4.6596-2.7255-3.1798 0-4.5966 2.7794-1.4168 2.7524-1.4168 10.227z"/>
   </g>
   <g transform="matrix(13.105 0 0 13.105 -11583 -11027)" fill-rule="evenodd">
    <path d="m745.6 897.36c-0.53663-3.4613-0.36298-6.8561 1.0814-10.454 1.3598 0.90132 1.0349 6.4439 0.66947 10.454-0.23659-0.70811-0.15563-0.7768-0.88025-1.2409-0.49918-0.16354-0.44005-0.0352-0.87067 1.2409z" fill="url(#e)"/>
    <path transform="matrix(.99924 -.039026 .039026 .99924 0 0)" d="m716.28 928.27c2e-5 0.26849-2.3645 0.48614-5.2812 0.48614s-5.2812-0.21765-5.2812-0.48614c4e-5 -0.26848 2.2943-0.95326 5.211-0.95326 2.9167-1e-5 5.3514 0.68478 5.3514 0.95326z" color="#000000" color-rendering="auto" fill="#fea" filter="url(#d)" image-rendering="auto" opacity=".705" shape-rendering="auto" solid-color="#000000" style="isolation:auto;mix-blend-mode:normal"/>
    <path d="m746.18 899.28c0.37301-0.80188 0.51504-1.3728 0.33697-1.6236-0.30877-0.32098-0.49173 0.11296-0.70459 0.36761-0.37729-0.0445-0.47991-0.27231-0.1838-0.76585 0.47994-0.69073 0.95987-0.82579 1.4398-0.98029 0.17011 0.72232 0.36682 1.397 0.0613 2.9715z" fill="#2e1a0d"/>
   </g>
  </g>
 </g>
</svg>
