<?xml version="1.0" encoding="UTF-8"?>
<svg viewBox="0 0 978.72455 624.9671" xmlns="http://www.w3.org/2000/svg" xmlns:xlink="http://www.w3.org/1999/xlink">
 <defs>
  <clipPath id="h">
   <path d="m3275.6 8861s187.61 425.93 669.31 476.63 867.07-55.776 1085.1-152.12-273.81-669.31-273.81-669.31l-613.54-334.66-501.99 147.05z"/>
  </clipPath>
  <filter id="j">
   <feGaussianBlur stdDeviation="22.45207"/>
  </filter>
  <linearGradient id="c">
   <stop stop-color="#fff" offset="0"/>
   <stop stop-color="#fff" stop-opacity="0" offset="1"/>
  </linearGradient>
  <linearGradient id="b">
   <stop stop-color="#000080" offset="0"/>
   <stop stop-color="#000080" stop-opacity="0" offset="1"/>
  </linearGradient>
  <linearGradient id="g" x1="4673.1" x2="4315" gradientUnits="userSpaceOnUse" xlink:href="#c"/>
  <linearGradient id="f" x1="3965.2" x2="4051.4" y1="10157" y2="9407.8" gradientUnits="userSpaceOnUse" xlink:href="#b"/>
  <linearGradient id="a" x1="4081.5" x2="4109.2" y1="7966.3" y2="9473.9" gradientUnits="userSpaceOnUse" xlink:href="#c"/>
  <linearGradient id="e" x1="3697" x2="2657.2" y1="8687" y2="9562.5" gradientTransform="matrix(.48577 -.25447 .21788 .41592 -326.87 7491.8)" gradientUnits="userSpaceOnUse" xlink:href="#c"/>
  <linearGradient id="k" x1="4168" x2="4010.8" y1="9105.7" y2="9621.8" gradientUnits="userSpaceOnUse" xlink:href="#b"/>
  <radialGradient id="d" cx="4686.1" cy="9250.3" r="152.12" gradientTransform="matrix(1.3321 .55359 -.62047 1.4931 4004.9 -7123.7)" gradientUnits="userSpaceOnUse">
   <stop stop-color="#808080" stop-opacity="0" offset="0"/>
   <stop offset="1"/>
  </radialGradient>
  <radialGradient id="i" cx="4047.1" cy="8756" r="918.76" gradientTransform="matrix(.03311 -.69187 .62805 .04631 -2347.5 12287)" gradientUnits="userSpaceOnUse" xlink:href="#b"/>
 </defs>
 <path transform="matrix(.50313 0 0 .49449 -114.76 -5752.3)" d="m1668.2 12152c0 254.94-308.99 457.53-446.21 457.53s101.41-206.67 101.41-461.62-238.63-461.62-101.41-461.62 446.21 210.76 446.21 465.7zm-897.49 216.51c0 254.94-308.99 457.53-446.21 457.53s101.41-206.67 101.41-461.62-238.63-461.62-101.41-461.62 446.21 210.76 446.21 465.7zm1348.8 10.213c0 256.07-320.09 463.66-714.95 463.66s-714.95-207.59-714.95-463.66 320.09-463.66 714.95-463.66 714.95 207.59 714.95 463.66z" filter="url(#j)"/>
 <g transform="matrix(.50052 0 0 .50052 -1479.6 -5038.2)">
  <path transform="matrix(.60722 0 0 .60722 2017.2 4943.3)" d="m4619.3 9363c0 81.211-68.105 147.05-152.12 147.05s-152.12-65.835-152.12-147.05 68.105-147.05 152.12-147.05 152.12 65.835 152.12 147.05z" fill="#fff"/>
  <path transform="matrix(.60722 0 0 .60722 2017.2 4943.3)" d="m4619.3 9363c0 81.211-68.105 147.05-152.12 147.05s-152.12-65.835-152.12-147.05 68.105-147.05 152.12-147.05 152.12 65.835 152.12 147.05z" fill="url(#d)"/>
  <path transform="matrix(.22265 0 0 .41877 3787.5 6707.7)" d="m4619.3 9363c0 81.211-68.105 147.05-152.12 147.05s-152.12-65.835-152.12-147.05 68.105-147.05 152.12-147.05 152.12 65.835 152.12 147.05z" fill="#fff"/>
  <path transform="matrix(.24339 0 0 .32455 3704.1 7591.5)" d="m4619.3 9363c0 81.211-68.105 147.05-152.12 147.05s-152.12-65.835-152.12-147.05 68.105-147.05 152.12-147.05 152.12 65.835 152.12 147.05z"/>
  <path transform="matrix(.18058 0 0 .24079 3987.4 8372.6)" d="m4619.3 9363c0 81.211-68.105 147.05-152.12 147.05s-152.12-65.835-152.12-147.05 68.105-147.05 152.12-147.05 152.12 65.835 152.12 147.05z" fill="url(#g)"/>
  <g transform="matrix(1 0 0 .80565 40.564 3218.5)" fill="#00f">
   <path d="m4365.8 9155.1c0 316.44-308.99 567.9-446.21 567.9s101.41-256.53 101.41-572.97-238.63-572.97-101.41-572.97 446.21 261.6 446.21 578.04zm-897.49 268.74c0 316.44-308.99 567.9-446.21 567.9s101.41-256.53 101.41-572.97-238.63-572.97-101.41-572.97 446.21 261.6 446.21 578.04zm1348.8 12.676c0 317.84-320.09 575.51-714.95 575.51s-714.95-257.66-714.95-575.51 320.09-575.51 714.95-575.51 714.95 257.66 714.95 575.51z"/>
   <path d="m4365.8 9155.1c0 316.44-308.99 567.9-446.21 567.9s101.41-256.53 101.41-572.97-238.63-572.97-101.41-572.97 446.21 261.6 446.21 578.04zm-897.49 268.74c0 316.44-308.99 567.9-446.21 567.9s101.41-256.53 101.41-572.97-238.63-572.97-101.41-572.97 446.21 261.6 446.21 578.04zm1348.8 12.676c0 317.84-320.09 575.51-714.95 575.51s-714.95-257.66-714.95-575.51 320.09-575.51 714.95-575.51 714.95 257.66 714.95 575.51z"/>
  </g>
  <g transform="matrix(1 0 0 .80565 40.564 3218.5)" fill="url(#f)">
   <path d="m4365.8 9155.1c0 316.44-308.99 567.9-446.21 567.9s101.41-256.53 101.41-572.97-238.63-572.97-101.41-572.97 446.21 261.6 446.21 578.04zm-897.49 268.74c0 316.44-308.99 567.9-446.21 567.9s101.41-256.53 101.41-572.97-238.63-572.97-101.41-572.97 446.21 261.6 446.21 578.04zm1348.8 12.676c0 317.84-320.09 575.51-714.95 575.51s-714.95-257.66-714.95-575.51 320.09-575.51 714.95-575.51 714.95 257.66 714.95 575.51z"/>
   <path d="m4365.8 9155.1c0 316.44-308.99 567.9-446.21 567.9s101.41-256.53 101.41-572.97-238.63-572.97-101.41-572.97 446.21 261.6 446.21 578.04zm-897.49 268.74c0 316.44-308.99 567.9-446.21 567.9s101.41-256.53 101.41-572.97-238.63-572.97-101.41-572.97 446.21 261.6 446.21 578.04zm1348.8 12.676c0 317.84-320.09 575.51-714.95 575.51s-714.95-257.66-714.95-575.51 320.09-575.51 714.95-575.51 714.95 257.66 714.95 575.51z"/>
  </g>
  <g transform="matrix(.9148 0 0 .63298 373.38 4725.6)" fill="url(#a)">
   <g transform="translate(35.494 70.988)" clip-path="url(#h)" fill="url(#a)">
    <path d="m4365.8 9155.1c0 316.44-308.99 567.9-446.21 567.9s101.41-256.53 101.41-572.97-249.72-645.07-112.5-645.07 457.3 333.7 457.3 650.14zm-897.49 268.74c0 316.44-308.99 567.9-446.21 567.9s101.41-256.53 101.41-572.97-238.63-572.97-101.41-572.97 446.21 261.6 446.21 578.04zm1348.8 12.676c0 317.84-320.09 575.51-714.95 575.51s-714.95-257.66-714.95-575.51 320.09-575.51 714.95-575.51 714.95 257.66 714.95 575.51z"/>
    <path d="m4365.8 9155.1c0 316.44-308.99 567.9-446.21 567.9s101.41-256.53 101.41-572.97-244.17-645.07-106.95-645.07 451.75 333.7 451.75 650.14zm-897.49 268.74c0 316.44-308.99 567.9-446.21 567.9s101.41-256.53 101.41-572.97-238.63-572.97-101.41-572.97 446.21 261.6 446.21 578.04zm1348.8 12.676c0 317.84-320.09 575.51-714.95 575.51s-714.95-257.66-714.95-575.51 320.09-575.51 714.95-575.51 714.95 257.66 714.95 575.51z"/>
   </g>
  </g>
  <path d="m3387.4 10613c85.116 162.48 79.366 332.39 37.195 354.48s-145.36-91.717-230.47-254.2-150.35-322.25-108.18-344.34 216.35 81.577 301.46 244.06z" fill="url(#e)"/>
  <g transform="matrix(.9148 0 0 .63298 373.38 4725.6)" fill="url(#a)">
   <g transform="translate(35.494 70.988)" clip-path="url(#h)" fill="url(#a)">
    <path d="m4365.8 9155.1c0 316.44-308.99 567.9-446.21 567.9s101.41-256.53 101.41-572.97-249.72-645.07-112.5-645.07 457.3 333.7 457.3 650.14zm-897.49 268.74c0 316.44-308.99 567.9-446.21 567.9s101.41-256.53 101.41-572.97-238.63-572.97-101.41-572.97 446.21 261.6 446.21 578.04zm1348.8 12.676c0 317.84-320.09 575.51-714.95 575.51s-714.95-257.66-714.95-575.51 320.09-575.51 714.95-575.51 714.95 257.66 714.95 575.51z"/>
    <path d="m4365.8 9155.1c0 316.44-308.99 567.9-446.21 567.9s101.41-256.53 101.41-572.97-244.17-645.07-106.95-645.07 451.75 333.7 451.75 650.14zm-897.49 268.74c0 316.44-308.99 567.9-446.21 567.9s101.41-256.53 101.41-572.97-238.63-572.97-101.41-572.97 446.21 261.6 446.21 578.04zm1348.8 12.676c0 317.84-320.09 575.51-714.95 575.51s-714.95-257.66-714.95-575.51 320.09-575.51 714.95-575.51 714.95 257.66 714.95 575.51z"/>
   </g>
  </g>
  <path d="m3387.4 10613c85.116 162.48 79.366 332.39 37.195 354.48s-145.36-91.717-230.47-254.2-150.35-322.25-108.18-344.34 216.35 81.577 301.46 244.06z" fill="url(#e)"/>
  <g transform="matrix(1 0 0 .80565 40.564 3218.5)">
   <path d="m4365.8 9155.1c0 316.44-308.99 567.9-446.21 567.9s101.41-256.53 101.41-572.97-238.63-572.97-101.41-572.97 446.21 261.6 446.21 578.04zm-897.49 268.74c0 316.44-308.99 567.9-446.21 567.9s101.41-256.53 101.41-572.97-238.63-572.97-101.41-572.97 446.21 261.6 446.21 578.04zm1348.8 12.676c0 317.84-320.09 575.51-714.95 575.51s-714.95-257.66-714.95-575.51 320.09-575.51 714.95-575.51 714.95 257.66 714.95 575.51z" fill="url(#f)"/>
   <path d="m4365.8 9155.1c0 316.44-308.99 567.9-446.21 567.9s101.41-256.53 101.41-572.97-238.63-572.97-101.41-572.97 446.21 261.6 446.21 578.04zm-897.49 268.74c0 316.44-308.99 567.9-446.21 567.9s101.41-256.53 101.41-572.97-238.63-572.97-101.41-572.97 446.21 261.6 446.21 578.04zm1348.8 12.676c0 317.84-320.09 575.51-714.95 575.51s-714.95-257.66-714.95-575.51 320.09-575.51 714.95-575.51 714.95 257.66 714.95 575.51z" fill="url(#i)"/>
  </g>
  <path transform="matrix(.76563 0 0 .76563 1204 3511.8)" d="m4619.3 9363c0 81.211-68.105 147.05-152.12 147.05s-152.12-65.835-152.12-147.05 68.105-147.05 152.12-147.05 152.12 65.835 152.12 147.05z" fill="#fff"/>
  <path transform="matrix(.76563 0 0 .76563 1204 3511.8)" d="m4619.3 9363c0 81.211-68.105 147.05-152.12 147.05s-152.12-65.835-152.12-147.05 68.105-147.05 152.12-147.05 152.12 65.835 152.12 147.05z" fill="url(#d)"/>
  <path transform="matrix(.28073 0 0 .52802 3436.1 5736.5)" d="m4619.3 9363c0 81.211-68.105 147.05-152.12 147.05s-152.12-65.835-152.12-147.05 68.105-147.05 152.12-147.05 152.12 65.835 152.12 147.05z" fill="#fff"/>
  <path transform="matrix(.30689 0 0 .40921 3331 6850.8)" d="m4619.3 9363c0 81.211-68.105 147.05-152.12 147.05s-152.12-65.835-152.12-147.05 68.105-147.05 152.12-147.05 152.12 65.835 152.12 147.05z"/>
  <path transform="matrix(.22769 0 0 .30361 3688.3 7835.7)" d="m4619.3 9363c0 81.211-68.105 147.05-152.12 147.05s-152.12-65.835-152.12-147.05 68.105-147.05 152.12-147.05 152.12 65.835 152.12 147.05z" fill="url(#g)"/>
  <path d="m4814.5 10965c-10.131 9.137-18.707 9.931-30.538 17.496-12.385 6.531-21.637 7.108-35.042 11.775-18.931 4.193-36.218 3.062-55.534 3.705-37.801-6.86-41.89-8.329-62.708-14.272-17.533-5.676-30.337-10.628-40.191-15.551-11.353-6.709-15.643-5.79-1.9447-6.625 12.481-0.113 44.919 10.45 57.677 8.77 36.162 6.106 40.662 5.533 70.468 4.763 10.444-1.138 34.912-4.69 44.944-7.167 12.96-4.403 24.166-11.676 34.907-18.781 7.897-8.083 15.074-8.786 19.959-18.729 5.3968-7.31 5.2517-14.614 16.461-17.523 6.3358 10.909-7.5649 39.464-18.458 52.139z" fill="#fff"/>
 </g>
</svg>
