<?xml version="1.0" encoding="UTF-8"?>
<svg viewBox="0 0 499.42282 486.07681" xmlns="http://www.w3.org/2000/svg">
 <defs>
  <radialGradient id="a" cx="246.31" cy="225.35" r="34.72" gradientUnits="userSpaceOnUse">
   <stop stop-color="#fff" offset="0"/>
   <stop offset="1"/>
  </radialGradient>
 </defs>
 <g transform="translate(-157.48 -410.54)">
  <path d="m365.02 655.68c-0.019-8.722-12.474-15.771-27.818-15.738-11.638 0.0254-21.593 4.1192-25.716 9.8984-2.3473 0.86329-4.138 2.1664-5.016 3.7033-2.4207 0.0343-43.346-16.996-56.184-16.341-29.602 1.5284-30.637 13.647-68.291 0.28124-18.125-6.4336-36.686 5.2462-36.686 5.2462s19.741-12.819 35.217-3.5306c24.118 14.476 46.652 1.7867 69.734 2.3251 12.012 0.28022 52.151 16.263 56.135 16.184 0.82892 1.5485 2.5859 2.8643 4.8991 3.7422 4.0109 5.9239 14.134 10.114 25.978 10.088 15.344-0.0335 27.768-7.1371 27.749-15.859z"/>
  <path transform="translate(160.1 430.19)" d="m281.03 225.35c0 19.175-15.545 34.72-34.72 34.72s-34.72-15.545-34.72-34.72 15.545-34.72 34.72-34.72 34.72 15.545 34.72 34.72z" fill="url(#a)"/>
  <path d="m376.41 684.12c-6.1808-6.154-19.972-2.3317-30.799 8.5419-8.2112 8.2471-12.356 18.181-11.185 25.183-1.0493 2.2702-1.3941 4.4579-0.92819 6.1655-1.6874 1.7359-47.964 22.191-57.18 31.152-10.974 10.67-7.1031 34.251-42.193 45.508-18.314 5.8753-33.08 2.529-33.08 2.529s15.003 5.3313 32.514 0.95634c27.289-6.8179 29.094-29.978 45.796-45.919 8.692-8.2957 54.273-28.356 57.034-31.229 1.6811 0.50885 3.8539 0.19686 6.1103-0.818 7.025 1.3527 17.146-2.8427 25.503-11.235 10.826-10.874 14.588-24.682 8.4075-30.836z"/>
  <path d="m404.57 696.18c-8.722 0.019-15.771 12.474-15.738 27.818 0.0254 11.638 4.1192 21.593 9.8984 25.716 0.86329 2.3472 2.1664 4.138 3.7033 5.016 0.0343 2.4207-16.16 46.289-16.341 59.143-0.21502 15.305 17.133 32.56 0.28124 65.332-8.7954 17.104 12.916 36.028 12.916 36.028s-20.14-17.688-10.851-33.164c14.476-24.118 1.438-45.088 1.9764-68.17 0.28022-12.012 16.263-55.11 16.184-59.094 1.5486-0.82892 2.8643-2.5859 3.7422-4.8991 5.9239-4.0109 10.114-14.134 10.088-25.978-0.0335-15.344-7.1371-27.768-15.859-27.749z"/>
  <path d="m433 684.79c-6.154 6.1808-2.3317 19.972 8.5419 30.799 8.2471 8.2112 18.181 12.356 25.183 11.185 2.2702 1.0493 4.4579 1.3941 6.1655 0.92819 1.7359 1.6874 29.712 31.148 51.924 35.482 15.023 2.9319 13.48 28.801 24.737 63.891 5.8753 18.314 25.213 36.039 25.213 36.039s-18.326-21.093-20.214-31.525c-10.591-24.673-3.8237-55.974-27.707-71.442-27.474-3.8103-48.081-32.576-50.954-35.337 0.50886-1.6811 0.19686-3.8539-0.818-6.1104 1.3527-7.025-2.8427-17.146-11.235-25.503-10.874-10.826-24.682-14.588-30.836-8.4075z"/>
  <path d="m445.06 656.64c0.019 8.722 12.474 15.771 27.818 15.738 11.638-0.0254 21.593-4.1192 25.716-9.8984 2.3473-0.86329 4.138-2.1664 5.016-3.7033 2.4207-0.0343 45.303-18.358 58.156-18.178 15.305 0.21502 33.546 17.385 66.318 34.238 17.104 8.7954 25.18 21.603 25.18 21.603s-6.8391-14.379-22.315-23.667c-24.118-14.476-46.074-35.957-69.156-36.495-12.012-0.28022-54.124 18.256-58.108 18.335-0.82892-1.5485-2.5859-2.8643-4.8991-3.7422-4.0109-5.9239-14.134-10.114-25.978-10.088-15.344 0.0335-27.768 7.1371-27.749 15.859z"/>
  <path d="m433.68 628.2c6.1808 6.154 19.972 2.3317 30.799-8.5419 8.2112-8.2471 12.356-18.181 11.185-25.183 1.0493-2.2702 1.3941-4.4579 0.92819-6.1655 1.6874-1.7359 24.294-42.903 33.51-51.864 10.974-10.67 40.885-5.52 75.975-16.777 18.314-5.8753 27.501-43.675 27.501-43.675s-12.214 35.814-29.725 40.189c-27.289 6.8179-60.087 1.2471-76.789 17.187-8.692 8.2957-30.603 49.067-33.364 51.94-1.6811-0.50885-3.8539-0.19686-6.1103 0.818-7.025-1.3527-17.146 2.8427-25.503 11.235-10.826 10.874-14.588 24.682-8.4075 30.836z"/>
  <path d="m405.52 616.14c8.722-0.019 15.771-12.474 15.738-27.818-0.0254-11.638-4.1192-21.593-9.8984-25.716-0.86329-2.3472-2.1664-4.138-3.7033-5.016-0.0343-2.4207-12.441-45.303-12.26-58.156 0.21502-15.305 11.468-33.546 28.32-66.318 8.7954-17.104-11.929-38.987-11.929-38.987s19.154 20.647 9.8651 36.122c-14.476 24.118-30.039 46.074-30.578 69.156-0.28022 12.012 12.338 54.124 12.417 58.108-1.5486 0.82892-2.8643 2.5859-3.7422 4.8991-5.9239 4.0109-10.114 14.134-10.088 25.978 0.0335 15.344 7.1371 27.768 15.859 27.749z"/>
  <path d="m377.08 627.53c6.154-6.1808 2.3317-19.972-8.5419-30.799-8.2471-8.2112-18.181-12.356-25.183-11.185-2.2702-1.0493-4.4579-1.3941-6.1655-0.92819-1.7359-1.6874-29.095-43.032-38.056-52.249-10.67-10.974-26.301-10.988-37.559-46.078-5.8753-18.314-3.575-34.126-3.575-34.126s-5.3313 15.003-0.95635 32.514c6.8179 27.289 22.726 35.072 41.107 50.03 9.3194 7.584 33.168 50.039 36.041 52.8-0.50886 1.6811-0.19686 3.8539 0.818 6.1104-1.3527 7.025 2.8427 17.146 11.235 25.503 10.874 10.826 24.682 14.588 30.836 8.4075z"/>
 </g>
</svg>
