<?xml version="1.0" encoding="UTF-8"?>
<svg viewBox="0 0 450 450" xmlns="http://www.w3.org/2000/svg">
 <g transform="matrix(1.1827 0 0 1.1827 -415.39 -294.98)">
  <path transform="matrix(1.2873 -.3173 .33939 1.3769 -271.08 13.174)" d="m450 427.07a11.598 21.539 0 1 1 -23.196 0 11.598 21.539 0 1 1 23.196 0z" fill="#ffe4e1" fill-rule="evenodd" stroke="#000" stroke-width="3"/>
  <path transform="matrix(.75182 -.18532 .19822 .80417 23.958 199.91)" d="m450 427.07a11.598 21.539 0 1 1 -23.196 0 11.598 21.539 0 1 1 23.196 0z" fill="#ffe4e1" fill-rule="evenodd" stroke="#000" stroke-width="2.4974"/>
  <path transform="matrix(-1.2873 -.3173 -.33939 1.3769 1345.9 13.174)" d="m450 427.07a11.598 21.539 0 1 1 -23.196 0 11.598 21.539 0 1 1 23.196 0z" fill="#ffe4e1" fill-rule="evenodd" stroke="#000" stroke-width="3"/>
  <path transform="matrix(-.75182 -.18532 -.19822 .80417 1050.9 199.91)" d="m450 427.07a11.598 21.539 0 1 1 -23.196 0 11.598 21.539 0 1 1 23.196 0z" fill="#ffe4e1" fill-rule="evenodd" stroke="#000" stroke-width="2.4974"/>
  <path d="m375.97 470.92s210.61 1.8085 293.9 2.8924c25.695 0.33439 39.429-15.494 38.912-33.057-0.51786-17.613-29.785-39.612-29.785-39.612l-17.505 13.824s23 13.583 23.377 26.409c0.317 10.781-4.4803 16.724-15.466 16.581l-295.26-3.8424 1.8236 16.806z" fill="#4682b4" fill-rule="evenodd" stroke="#000" stroke-width="3.5643"/>
  <path transform="matrix(1.3258 0 0 1.4181 -174.9 -183.83)" d="m609.05 439.66a71.244 83.836 0 1 1 -142.49 0 71.244 83.836 0 1 1 142.49 0z" fill="#ffe4e1" fill-rule="evenodd" stroke="#000" stroke-width="3.0003"/>
  <path d="m488.31 512.51h102.16v11.247s-26.946 18.745-52.486 18.745-49.674-18.745-49.674-18.745v-11.247z" fill="#fff" fill-rule="evenodd" stroke="#000" stroke-width="3"/>
  <path d="m533.3 512.51v29.055" fill="none" stroke="#000"/>
  <path d="m547.35 513.44v27.18" fill="none" stroke="#000"/>
  <path d="m559.54 513.44v24.368" fill="none" stroke="#000"/>
  <path d="m571.72 513.44v18.745" fill="none" stroke="#000"/>
  <path d="m582.97 512.51v14.996" fill="none" stroke="#000"/>
  <path d="m519.24 512.51v25.306" fill="none" stroke="#000"/>
  <path d="m507.05 513.44v21.557" fill="none" stroke="#000"/>
  <path d="m497.68 513.44v15.933" fill="none" stroke="#000"/>
  <path d="m502.75 481.68c-1.3297-3.2049-0.68755-7.0218 1.9263-9.6357v-2e-5l27.94-27.94c3.4651-3.4651 9.0444-3.4651 12.509-2e-5l25.595 25.595c3.3088 3.3088 3.4581 8.5453 0.44777 12.028" fill="#4682b4" fill-rule="evenodd" stroke="#000" stroke-width="3.3065"/>
  <path d="m535.76 369.3c-54.017 0.64913-97.54 28.577-97.54 62.857 0 34.687 44.565 62.823 99.469 62.823s99.469-28.136 99.469-62.823-44.565-62.857-99.469-62.857c-0.64341 0-1.2882-0.0077-1.9288 0zm0.44775 13.88c0.49904-6e-3 0.97973 0 1.481 0 42.777 1e-5 77.495 21.952 77.495 48.977s-34.718 48.942-77.495 48.942-77.495-21.917-77.495-48.942c0-26.708 33.929-48.471 76.014-48.977z" fill="#4682b4" fill-rule="evenodd" stroke="#000" stroke-width="3.3065"/>
  <g transform="matrix(.093039 0 0 .093039 546.85 408.29)" fill-rule="evenodd">
   <path d="m397.64 320.25-117.25-37.736-29.65-157.68 94.34-95.688 48.518 17.52 90.297 88.949-86.254 184.64z" fill="#fff" stroke="#000" stroke-width="1.1702"/>
   <path d="m476.96 339.17c18.824 3.7644 22.59 16.942 18.824 20.706-3.7634 3.7654-13.175 7.5298-20.705 1.8821s-7.5318-18.824 1.8813-22.588z"/>
   <path d="m286.46 340.43c-1.8342 0.48921-17.158-12.716-29.293-6.5953s-20.276 19.823-8.9423 25.446c11.335 5.6232 19.438-0.86115 29.374-7.8386s9.5793-8.3206 8.8608-11.012z"/>
   <path d="m510.36 306.93c10.237-2.5598 33.886 0 30.119 15.058-3.7633 15.062-35.764 9.4119-56.473 1.8852-1.8823-15.061 21.529-15.737 26.354-16.943z"/>
   <path d="m359.24 21.363c-11.313 0-22.606 4.3206-31.275 12.99l-154.09 154.06c-8.4969 8.4967-12.762 19.543-12.931 30.631h-0.05851c0 0.03947 0.05658 0.07745 0.05851 0.11702-0.00236 0.18609-0.05851 0.36977-0.05851 0.55586h0.2633c2.9491 11.221 79.15 25.523 87.651 34.025 12.839 12.839-49.233 22.268-36.395 35.107s77.59 24.843 90.43 37.682-26.238 26.51-13.399 39.349 55.967-3.2094 48.155 30.28c17.338 17.338 53.512 9.0588 77.733-8.2795 12.839-12.839-24.629-11.707-11.79-24.546s45.247-12.908 72.555-43.621c-10.992-17.095-46.981-24.375-34.142-37.214s37.8-6.3179 91.659-30.777c26.292-11.941 24.12-21.01 24.019-32.006-0.00211-0.23138 0-0.43973 0-0.67288h-0.05851c-0.16886-11.088-4.4637-22.134-12.96-30.631l-154.06-154.06c-8.6691-8.6691-19.991-12.99-31.304-12.99zm-1.3165 20.04c5.0295 0.13102 9.0916 3.9651 17.056 9.1279l72.789 53.977c0.79681 0.51671 1.5557 1.0557 2.2527 1.6091s1.3337 1.1401 1.9309 1.7261c0.5972 0.58495 1.14 1.1721 1.6383 1.7846s0.94845 1.2385 1.3458 1.8724 0.75476 1.2798 1.0532 1.9309 0.53281 1.325 0.7314 1.9894 0.36832 1.319 0.46811 1.9894 0.14627 1.3452 0.14627 2.0187l-43.123-20.83-4.3006 32.562-23.727-11.117-36.629 24.458-14.014-48.331-18.051 42.275-50.408 5.032 0.55587-22.439c0-5.3897 29.057-43.122 46.751-52.105l32.386-23.259c4.7787-3.0977 8.1289-4.35 11.147-4.2714zm-66.996 220.21c22.944 5.9503 48.476 13.757 68.957 13.897l0.87768 9.2157c-17.538-1.8078-54.648-10.276-63.398-14.745l-6.4363-8.3672z"/>
  </g>
  <g transform="matrix(.093039 0 0 .093039 461.44 408.29)" fill-rule="evenodd">
   <path d="m397.64 320.25-117.25-37.736-29.65-157.68 94.34-95.688 48.518 17.52 90.297 88.949-86.254 184.64z" fill="#fff" stroke="#000" stroke-width="1.1702"/>
   <path d="m476.96 339.17c18.824 3.7644 22.59 16.942 18.824 20.706-3.7634 3.7654-13.175 7.5298-20.705 1.8821s-7.5318-18.824 1.8813-22.588z"/>
   <path d="m286.46 340.43c-1.8342 0.48921-17.158-12.716-29.293-6.5953s-20.276 19.823-8.9423 25.446c11.335 5.6232 19.438-0.86115 29.374-7.8386s9.5793-8.3206 8.8608-11.012z"/>
   <path d="m510.36 306.93c10.237-2.5598 33.886 0 30.119 15.058-3.7633 15.062-35.764 9.4119-56.473 1.8852-1.8823-15.061 21.529-15.737 26.354-16.943z"/>
   <path d="m359.24 21.363c-11.313 0-22.606 4.3206-31.275 12.99l-154.09 154.06c-8.4969 8.4967-12.762 19.543-12.931 30.631h-0.05851c0 0.03947 0.05658 0.07745 0.05851 0.11702-0.00236 0.18609-0.05851 0.36977-0.05851 0.55586h0.2633c2.9491 11.221 79.15 25.523 87.651 34.025 12.839 12.839-49.233 22.268-36.395 35.107s77.59 24.843 90.43 37.682-26.238 26.51-13.399 39.349 55.967-3.2094 48.155 30.28c17.338 17.338 53.512 9.0588 77.733-8.2795 12.839-12.839-24.629-11.707-11.79-24.546s45.247-12.908 72.555-43.621c-10.992-17.095-46.981-24.375-34.142-37.214s37.8-6.3179 91.659-30.777c26.292-11.941 24.12-21.01 24.019-32.006-0.00211-0.23138 0-0.43973 0-0.67288h-0.05851c-0.16886-11.088-4.4637-22.134-12.96-30.631l-154.06-154.06c-8.6691-8.6691-19.991-12.99-31.304-12.99zm-1.3165 20.04c5.0295 0.13102 9.0916 3.9651 17.056 9.1279l72.789 53.977c0.79681 0.51671 1.5557 1.0557 2.2527 1.6091s1.3337 1.1401 1.9309 1.7261c0.5972 0.58495 1.14 1.1721 1.6383 1.7846s0.94845 1.2385 1.3458 1.8724 0.75476 1.2798 1.0532 1.9309 0.53281 1.325 0.7314 1.9894 0.36832 1.319 0.46811 1.9894 0.14627 1.3452 0.14627 2.0187l-43.123-20.83-4.3006 32.562-23.727-11.117-36.629 24.458-14.014-48.331-18.051 42.275-50.408 5.032 0.55587-22.439c0-5.3897 29.057-43.122 46.751-52.105l32.386-23.259c4.7787-3.0977 8.1289-4.35 11.147-4.2714zm-66.996 220.21c22.944 5.9503 48.476 13.757 68.957 13.897l0.87768 9.2157c-17.538-1.8078-54.648-10.276-63.398-14.745l-6.4363-8.3672z"/>
  </g>
 </g>
</svg>
