<?xml version="1.0" encoding="UTF-8"?>
<svg viewBox="0 0 512 512" xmlns="http://www.w3.org/2000/svg" xmlns:xlink="http://www.w3.org/1999/xlink">
 <defs>
  <linearGradient id="a">
   <stop offset="0"/>
   <stop stop-opacity="0" offset="1"/>
  </linearGradient>
  <linearGradient id="b">
   <stop stop-color="#fff" offset="0"/>
   <stop stop-color="#fff" stop-opacity="0" offset="1"/>
  </linearGradient>
  <linearGradient id="i" x1="52.442" x2="89.378" y1="74.248" y2="87.155" gradientUnits="userSpaceOnUse" xlink:href="#a"/>
  <linearGradient id="h" x1="64.281" x2="114.81" y1="52.061" y2="71.421" gradientUnits="userSpaceOnUse" xlink:href="#a"/>
  <radialGradient id="g" cx="25.012" cy="30.937" r="20.114" gradientTransform="matrix(1 0 0 .13373 0 26.8)" gradientUnits="userSpaceOnUse">
   <stop offset="0"/>
   <stop stop-opacity=".5204" offset=".73"/>
   <stop stop-opacity="0" offset="1"/>
  </radialGradient>
  <radialGradient id="f" cx="110.87" cy="65.782" r="3.2008" gradientTransform="matrix(1.4518 1.0316 -1.3214 1.8598 -51.243 -173.87)" gradientUnits="userSpaceOnUse">
   <stop stop-color="#fff" stop-opacity=".4882" offset="0"/>
   <stop stop-opacity=".498" offset=".9"/>
   <stop stop-color="#fff" stop-opacity="0" offset="1"/>
  </radialGradient>
  <radialGradient id="e" cx="119.74" cy="68.863" r="3.5741" gradientTransform="matrix(-1.612 -1.907 1.7384 -1.4695 117.49 401.37)" gradientUnits="userSpaceOnUse">
   <stop offset="0"/>
   <stop stop-color="#7f7f7f" stop-opacity=".498" offset=".45"/>
   <stop stop-color="#fff" offset="1"/>
  </radialGradient>
  <radialGradient id="d" cx="120.58" cy="81.023" r="3.1052" gradientTransform="matrix(1.2876 -.58863 .93665 2.0489 -190.6 -2.9771)" gradientUnits="userSpaceOnUse" xlink:href="#b"/>
  <radialGradient id="c" cx="126.1" cy="70.715" r="1.7228" gradientTransform="matrix(3.635 -5.0111e-6 4.1588e-6 3.0168 -407.99 -139.64)" gradientUnits="userSpaceOnUse" xlink:href="#b"/>
 </defs>
 <g transform="matrix(2.8817 0 0 2.8817 -27.088 72.882)">
  <path transform="matrix(4.7144 0 0 4.7144 -19.679 -42.673)" d="m45.126 30.937c0 1.4856-9.0054 2.6899-20.114 2.6899s-20.114-1.2043-20.114-2.6899 9.0054-2.6899 20.114-2.6899 20.114 1.2043 20.114 2.6899z" fill="url(#g)" opacity=".8377"/>
  <path d="m12.485 76.957c-1.151-18.874 13.109-27.551 23.509-27.368 10.575 0.1863 30.16-0.76367 37.17-4.2688s41.56-27.54 61.089-27.039 35.702 2.6524 37.054 37.054c1.3032 33.159-6.5094 53.077-37.054 54.078-24.527 0.81757-39.616-4.445-64.594-6.0087-34.022-2.0985-56-7.1964-57.174-26.447z" fill-rule="evenodd"/>
  <path d="m128.36 30.702c10.256-0.52636 31.113-0.35607 34.344 31.689 2.913 28.729-11.866 39.838-42.842 37.708-28.148-1.9474-42.389-6.412-60.191-11.684-11.507-3.4079-11.19-2.7128-10.268-9.2057 0.83466-5.8794 41.249-46.563 78.957-48.507z" fill="#fff" fill-rule="evenodd"/>
  <path d="m69.049 56.372 26.732-18.766s12.879 10.338 13.455 23.368c0.58311 13.198-20.713 45.675-53.11 44.612-22.926-0.75167-31.703 0.6007-33.519-0.59108-1.637-1.074-0.40451-2.1327 0.23698-2.2414 46.284-7.8463 56.888-21.966 58.103-36.099 0.91434-10.638-4.525-8.9406-11.897-10.284z" fill-rule="evenodd"/>
  <path d="m80.855 68.712c1.2386 28.287-42.63 34.053-55.55 35.169-4.1687 0.36013-5.7454 0.0644-2.5102-0.97962 35.135-6.4294 53.181-18.141 58.061-34.189z" fill="#fff" fill-rule="evenodd" opacity=".3613"/>
  <path d="m54.507 95.038c4.4878 1.9494 12.908 4.0213 16.405 1.4983s25.924-3.7675 20.449-9.5445c-5.3471-5.6421-33.363-23.346-34.731-21.017-3.1816 5.4199 4.807 27.511-2.1236 29.063z" fill="url(#i)" fill-rule="evenodd" opacity=".5131"/>
  <path d="m76.617 53.464 22.123-16.692s15.487 9.4952 16.053 23.416c0.57266 14.1-19.051 46.988-50.867 45.854s-32.686-0.55795-32.686-3.0261c47.277-8.6595 55.868-23.467 57.061-38.565 0.89795-11.365-4.4438-9.5514-11.684-10.987z" fill="url(#h)" fill-rule="evenodd" opacity=".5759"/>
  <path d="m45.15 83.812c-0.72692-2.6082 0.17703-6.7273 2.6555-8.8517s0.35406-10.622 5.6651-11.153 15.225 11.507 15.048 17.526c-0.12538 4.2617-7.6277 13.826-11.33 14.163-7.7895 0.70814-5.488-3.7177-7.4354-5.134s-2.9037-0.45363-4.6029-6.5502z" fill="#ffd901" fill-rule="evenodd"/>
  <path d="m55.949 64.073c3.8947 5.2225 8.5861 9.7368 7.7895 17.438s-3.4743 8.9181-6.9928 13.543" fill="none" opacity=".178" stroke="#000" stroke-width=".71239"/>
  <path d="m47.628 81.599h4.3373" fill="none" opacity=".178" stroke="#000" stroke-width=".71239"/>
  <path d="m47.451 84.431h4.3373" fill="none" opacity=".178" stroke="#000" stroke-width=".87163"/>
  <path d="m175.62 31.764c1.9287 6.839-10.445 10.091-14.163 13.1-3.1377 2.5401-6.9043 2.1244-6.9043 0.70813s-1.4163-6.5502-1.4163-8.3206-6.0191-4.9569-5.6651-8.8517 0.17703-3.0096 2.3014-5.488-2.7034-4.782 0.70813-7.4354c1.5933-1.2392 6.0192-6.0191 9.5598-3.5407s14.619 16.423 15.579 19.828z" fill="#ffd902" fill-rule="evenodd"/>
  <path d="m157.74 73.367c3.2766-4.374 22.837 2.6555 23.191 9.3828s-8.9836 22.951-13.632 22.66c-2.8325-0.17703-5.488 1.4163-5.8421-3.1866-3.1323-5.909-6.689-3.6897-1.7703-9.5598 1.0622-2.4785-4.7799-4.4258-4.7799-6.1962s3.0096-4.2488 4.4258-5.6651-3.8932-4.3653-1.5933-7.4354z" fill="#ffd902" fill-rule="evenodd"/>
  <path d="m26.858 65.491c-0.11213-4.0113 2.31-6.5735 0.72124-7.9948s-6.5806-0.5165-7.8135 1.7883c-0.79218 1.4809-3.9058 5.4024 0.63799 8.6584 1.8428 1.3205 6.4682-1.9515 6.4543-2.4519z" fill="url(#f)" fill-rule="evenodd" opacity=".7079" stroke="#000" stroke-width="1.781"/>
  <path d="m36.121 76.908s-1.0622-9.5598 2.3014-11.507 5.8854-3.4146 6.7273-2.6555c5.3995 4.8684-2.3103 4.4169-3.9036 7.2495s-1.7615 7.9754-5.1251 6.9132z" fill="url(#e)" fill-rule="evenodd" opacity=".2228" stroke="#000" stroke-width="1.781"/>
  <path d="m37.613 86.755c2.2739-1.0233 4.7569 0.75109 5.1324 3.3799s4.0946 6.5982 2.2169 6.5982-6.8486-1.591-7.5997-2.968 0.02066-6.9068 0.25035-7.0102z" fill="url(#d)" fill-rule="evenodd" opacity=".2426" stroke="#000" stroke-width="1.781"/>
  <path d="m50.316 74.324c0.36506-2.1904-0.91264-6.7536 0.91264-5.6584s3.103 7.3012 1.4602 8.0313-4.5632 3.103-5.2933 1.8253 3.468-4.1982 2.9205-4.1982z" fill="url(#c)" fill-rule="evenodd" opacity=".4503"/>
  <path d="m157.28 12.447c-4.9283 2.5554-6.571 2.5554-6.571 4.5632s2.9205 2.9205 1.8253 4.7458-1.8253 2.5554-1.8253 2.5554 3.103-1.2777 3.2855-2.7379-2.3729-2.0078-1.8253-3.8331 5.2933-5.1108 5.1108-5.2933z" fill="#fff" fill-rule="evenodd" opacity=".5707"/>
  <path d="m151.07 31.795s2.0078 1.8253 2.7379 4.1982 1.0952 7.6662 1.0952 7.6662 1.4602-5.8409 0.36504-7.4837-4.0156-4.7458-4.1982-4.3807z" fill="#fff" fill-rule="evenodd" opacity=".5026"/>
  <path d="m158.74 75.784s2.5554 2.5554 2.1904 4.3807-2.9205 4.7458-2.9205 4.7458 3.8331-3.2855 4.0156-4.7458-3.468-4.0156-3.2855-4.3807z" fill="#fff" fill-rule="evenodd" opacity=".54"/>
  <path d="m161.66 90.569s0.54758-0.73011 0 1.2777-2.9205 4.3807-2.9205 4.3807 2.9205-0.91265 3.468-2.5554-0.91264-3.103-0.54758-3.103z" fill="#fff" fill-rule="evenodd" opacity=".4712"/>
  <path d="m62.316 87.463c1.0991-2.6583-0.7249 4.9896 0.66174-1.8387 0 0 5.7172-10.31 5.5401-4.2913-0.12538 4.2617-7.6277 13.826-11.33 14.163-0.78204-3.1592 3.6712-4.5087 5.1283-8.0327z" fill="#372f00" fill-rule="evenodd" opacity=".2408"/>
  <path d="m168.05 21.573s4.5632 5.6584 4.1982 9.4915-9.1264 9.8566-12.777 12.047-1.734 3.7418-1.0039 3.7418 11.263-6.2703 13.872-8.3963c2.4641-2.0078 3.2374-2.6508 3.3768-5.0195 0.27379-4.6545-7.4837-11.682-7.6662-11.864z" fill-rule="evenodd" opacity=".2565"/>
  <path d="m161.57 102.52s2.0991 0.63885 4.1982 0.18253 12.39-15.147 13.051-17.614c0.6884-2.5702-2.1904-8.1225-2.1904-8.1225s4.9968 3.9242 4.5632 6.1147c-1.7687 8.9354-9.1265 21.538-12.321 21.995s-4.1117 1.5581-5.4759 0.54759c-2.4641-1.8253-1.734-3.103-1.8253-3.103z" fill-rule="evenodd" opacity=".3194"/>
  <path d="m116.17 73.023s1.6405 0.41012 5.7417 0 11.893-3.6911 11.893-3.6911-6.5619 4.5113-11.073 5.3316-7.3822-1.2304-6.5619-1.6405z" fill-rule="evenodd" opacity=".1728"/>
 </g>
</svg>
