<?xml version="1.0" encoding="UTF-8"?>
<svg viewBox="0 0 204 208" xmlns="http://www.w3.org/2000/svg" xmlns:xlink="http://www.w3.org/1999/xlink">
 <g stroke-width="0">
  <g fill="#ff7f00">
   <path d="m3.6768 153.26c26.074 14.616 59.097 13.799 84.945 0 2.1367-1.289-28.239-4.633-42.613-4.633-25.685 0-42.799 2.552-42.332 4.633z" opacity=".75"/>
   <path d="m64.55 189.23s-0.2365-4.016 5.8845-4.103c6.1211-0.08699 59.626 0 63.619 0 3.994 0 4.989 2.733 4.955 4.121-0.085007 3.413-27.606 10.527-27.615 10.379l-36.466-2.922c-3.4592-2.492-8.3573-2.441-10.378-7.475z" opacity=".75"/>
   <path d="m64.575 188.76v7.804c-0.2632 8.234 74.427 8.64 74.409 0v-7.804c0.070999 8.686-74.559 8.7-74.409 0z" opacity=".75"/>
   <path d="m69.433 183.4c0.098396-1.422 10.075-5.111 31.326-5.111 21.366 0 33.367 2.937 33.367 5.219 0 0.552-6.569 5.034-6.569 5.034l-27.474 2.64-30.236-4.912-0.4144-2.87z" opacity=".75"/>
   <path d="m69.443 183.2v5.66c0.1184 5.191 64.688 5.92 64.672 0v-5.66c-0.024002 5.606-64.629 5.528-64.672 0z" opacity=".75"/>
   <path d="m116.3 183.77s-9.13-0.961-11.292-2.403c-2.162-1.441-1.682-1.562-3.904-1.562-2.2227 0-1.7421 0.121-3.9045 1.562-2.1623 1.442-11.292 2.403-11.292 2.403" opacity=".75"/>
  </g>
  <path id="f" d="m93.93 175.22l15.697 0.024c0.116 0.61301-5.005 5.123-6.67 5.035l-3.216-0.019c-1.8897 0.059998-5.8288-4.787-5.8112-5.04z" fill="#ff7f00" opacity=".75" stroke-width="0"/>
  <g transform="matrix(.96104 0 0 .96104 5.91 4.0595)" fill="#ff7f00" opacity=".75">
   <path d="m99.521 19.373c-0.2638 0-0.5306 0.012001-0.7812 0.0312-0.298 0.0228-0.5702 0.0776-0.8438 0.125-1.6315 0.2828-2.7812 0.9581-2.7812 1.7813v4.3437c-4.9359-2.8624-11.038-4.4062-15.406-4.4062-5.8336 0-8.8712 0.6882-15.875 4.5625-5.8238 3.2215-7.4342 4.6026-11.5 3.7187-4.0659-0.8839-6.0037-2.9804-8.125-3.6875-2.1214-0.7071-5.3005 1.5716-5.5 2.25-0.221 0.7513-0.917-0.1884-1.0938-0.7187-0.1768-0.5304-4.1768 1.742-4 3.1562s3.6162 5.2901 4.125 3.625c0.4861-1.591 1.1625-1.7437 1.7813-1.125 0.625 0.625 2.9276 1.9001 3.2812 4.375s-0.8974 3.1759-1.7812 2.4688c-0.8839-0.7072-1.2295-1.0429-1.4063-1.75-0.1768-0.7072-3.8741 1.0634-3.3437 1.5937 0.5303 0.5303 1.575 3.8652 2.8125 4.2188 1.2374 0.3535 1.25 1.9491 1.25 2.6562s2.125 0.5518 2.125 0.375 0.1562-2.5 0.1562-2.5 4.083-0.3422 3.9063-5.4687c-0.1768-5.1266-3.0187-6.709-1.7813-7.0625 1.2374-0.3536 7.4155 2.8232 12.719 3 5.3032 0.1767 12.485-5.125 22.031-5.125 7.083 0 13.02 3.2926 15.625 5v1.7187c0 0.8232 1.1497 1.4985 2.7812 1.7813 0.2736 0.047401 0.5458 0.1022 0.8438 0.125 0.2506 0.0191 0.5174 0.0312 0.7812 0.0312 0.041901 5e-4 0.082901 0 0.125 0h0.2188c0.3408 0 0.6818 3.01e-4 0.9998-0.0312 2.015-0.1794 3.531-0.9637 3.531-1.9063v-1.7187c2.606-1.7074 8.542-5 15.625-5 9.546 0 16.728 5.3017 22.032 5.125 5.303-0.1768 11.481-3.3536 12.718-3 1.238 0.3535-1.604 1.9359-1.781 7.0625-0.177 5.1265 3.906 5.4687 3.906 5.4687s0.157 2.3232 0.157 2.5 2.125 0.3321 2.125-0.375 0.012009-2.3027 1.25-2.6562c1.237-0.3536 2.282-3.6885 2.812-4.2188 0.53099-0.5303-3.167-2.3009-3.344-1.5937-0.176 0.7071-0.522 1.0428-1.406 1.75-0.884 0.7071-2.135 0.0061-1.781-2.4688s2.656-3.75 3.281-4.375c0.61899-0.6187 1.264-0.466 1.75 1.125 0.50899 1.6651 3.98-2.2108 4.156-3.625 0.177-1.4142-3.823-3.6866-4-3.1562-0.176 0.5303-0.87199 1.47-1.093 0.7187-0.2-0.6784-3.379-2.9571-5.5-2.25-2.122 0.7071-4.059 2.8036-8.125 3.6875s-5.677-0.4972-11.5-3.7187c-7.004-3.8743-10.073-4.5625-15.907-4.5625-4.368 0-10.439 1.5438-15.375 4.4062v-4.3437c0-0.9427-1.516-1.7269-3.531-1.9063-0.030998-0.002701-0.062996 0.002501-0.093994 0-0.248-0.0221-0.519-0.028099-0.78081-0.0312h-0.4688z"/>
   <path id="h" d="m41.896 28.395s6.8059 3.7123 13.523 3.7123c6.7176 0 14.496-6.5407 23.511-6.5407 7.781 0 14.618 4.6981 18.582 7.1729" fill="#ff7f00" stroke-width="0"/>
   <use transform="matrix(-1 0 0 1 199.51 5.0894e-7)" width="204" height="208" xlink:href="#h"/>
  </g>
  <g fill="#ff7f00">
   <path d="m98.466 23.147v-3.4363c2.3875-1.0384 4.2385-2.3148 6.6255 0v3.1015l-6.6255 0.3348z" opacity=".75"/>
   <path d="m101.55 22.338c-0.264 0-0.53 0.011999-0.78 0.031099-0.297 0.0228-0.569 0.0774-0.8416 0.1246-1.6276 0.2819-2.7745 0.9549-2.7745 1.7753v15.167c0 0.8203 1.1469 1.4934 2.7745 1.7752 0.2726 0.047199 0.5446 0.1018 0.8416 0.1246 0.25 0.0191 0.516 0.031101 0.78 0.031101 0.041 5e-4 0.082001 0 0.124 0h0.218c0.34 0 0.68 3.01e-4 0.998-0.031101 2.01-0.1788 3.523-0.9604 3.523-1.8998v-15.167c0-0.9395-1.513-1.7211-3.523-1.8999-0.030998-0.002699-0.063004 0.002501-0.093002 0-0.249-0.021999-0.518-0.027901-0.78-0.031099h-0.467z" opacity=".75"/>
   <path d="m97.766 175.4v-130.79l8.0273-0.0444-0.043 131.72-7.9843-0.888z" opacity=".75"/>
  </g>
  <use transform="matrix(1 0 0 -1 0 350.45)" width="204" height="208" fill="#ff7f00" xlink:href="#f"/>
  <path id="g" d="m97.574 44.754h8.4095s-1.515-2.2696-4.315-2.2696c-2.8007 0-4.0945 2.1574-4.0945 2.2696z" fill="#ff7f00" opacity=".75" stroke-width="0"/>
  <use id="j" transform="matrix(1 0 0 1.0631 0 -7.4276)" width="204" height="208" fill="#873c02" stroke-width="0" xlink:href="#g"/>
  <use transform="matrix(1 0 0 -1 0 85.126)" width="204" height="208" fill="#873c02" xlink:href="#j"/>
  <g fill="#ff7f00">
   <path d="m99.472 14.616v2.5527s-0.159 0.0818-0.1802 0.090099c-0.005806 0.0023-0.052704-0.002899-0.060005 0-0.9897 0.1756-2.3752 0.5207-2.8231 1.0211-0.1795 0.2006-0.1323 0.3357 0 0.5106 0.264 0.349 2.5878 1.4416 5.1955 1.4416 0.049004 0 0.10101 0.001101 0.15 0 0.059006 0.0016 0.122 0 0.181 0 2.607 0 4.924-1.0925 5.195-1.4416 0.215-0.2772 0.149-0.3273 0-0.5106-0.281-0.3462-1.84-0.8476-2.823-1.0211-0.003998-0.0014-0.027 0.001301-0.029999 0-0.027-0.010698-0.21-0.090099-0.21-0.090099v-2.5527h-4.5952z" opacity=".75"/>
   <path d="m107.32 10.596a5.5405 5.5405 0 1 1 -11.081 0 5.5405 5.5405 0 1 1 11.081 0z" opacity=".75"/>
  </g>
  <path id="i" d="m157 42.411c-0.183 1.6218-0.216 3.2435 0 4.8653 0 0-3.063-0.042698-3.063 0.6607s0.38301 13.442-0.72099 14.716c-1.104 1.2742-1.803 1.0099-2.312 0.3304-0.51001-0.6796-2.023-0.5801-2.193-0.2403s-0.54199 2.4226 0.541 3.1234c1.511 0.9778 5.276 0.9497 5.616-2.7029 0.34-3.6527 0.33-6.7874 1.742-6.7874 0.51 0 0.48 1.7403 0.48 3.694s-0.17 2.4584-0.51 2.8831c-0.34 0.4248-0.255 4.5049 0 4.5049h2.553c0.254 0 0.339-4.0801 0-4.5049-0.34-0.4247-0.511-0.9294-0.511-2.8831s-0.239-3.694 0.27-3.694c1.532 0 1.342 2.8044 1.682 6.457s3.857 3.748 5.556 3.1534 0.875-3.0462 0.72099-3.3937c-0.23-0.5199-1.232-0.0788-1.862 0.3004-0.728 0.4382-1.449 0.9438-2.553-0.3304-1.104-1.2741-1.201-13.922-1.201-14.626 0-0.7034-2.793-0.6607-2.793-0.6607-0.070999-1.6218-0.299-3.2435 0-4.8653-0.73 0.3993-1.106 0.2317-1.442 0zm0.781 5.8563c0.81499 0 1.472 0.1436 1.472 0.3304v2.2825c0 0.1867-0.65701 0.3303-1.472 0.3303-0.815 0-1.472-0.1436-1.472-0.3303v-2.2825c0-0.1868 0.657-0.3304 1.472-0.3304z" fill="#ff7f00" opacity=".75" stroke-width="0"/>
  <g fill="#ff7f00">
   <path d="m116 153.26c26.074 14.616 59.097 13.799 84.945 0 2.137-1.289-28.239-4.633-42.613-4.633-25.685 0-42.799 2.552-42.332 4.633z" opacity=".75"/>
   <path d="m158.32 63.108c1.504 6.8846-1.283 4.1147-1.382 5.4465l-0.15 94.962" opacity=".75"/>
  </g>
  <use transform="matrix(-1 0 0 1 315.81 0)" width="204" height="208" fill="#873c02" xlink:href="#use5570"/>
  <use transform="matrix(-1 0 0 1 203.57 0)" width="204" height="208" fill="#873c02" xlink:href="#i"/>
  <g fill="#ff7f00">
   <path d="m116 153.16c28.453 12.578 59.097 10.062 84.945 0-0.58099 2.937-15.182 20.957-43.632 20.956-28.063-0.001007-41.313-18.917-41.313-20.956z" opacity=".75"/>
   <path d="m45.353 62.774c-1.5047 6.8847 1.2825 4.1147 1.3815 5.4465l0.1502 94.961" opacity=".75"/>
  </g>
  <use transform="matrix(-1 0 0 1 203.49 0)" width="204" height="208" fill="#873c02" xlink:href="#use5570"/>
  <g fill="#ff7f00">
   <path d="m4.0101 153.16c28.452 12.578 59.097 10.062 84.945 0-0.5815 2.938-15.183 20.957-43.632 20.956-28.063-0.001007-41.312-18.917-41.312-20.956z" opacity=".75"/>
   <path d="m45.154 41.811c-0.1834 1.6218-0.2164 3.2436 0 4.8653 0 0-3.0633-0.042698-3.0633 0.6607 0 0.7035 0.3835 13.442-0.7207 14.716-1.1043 1.2741-1.8029 1.0099-2.3125 0.3303-0.5097-0.6795-2.0225-0.58-2.1924-0.2402-0.1699 0.3397-0.5425 2.4226 0.5406 3.1233 1.5112 0.9779 5.2763 0.9497 5.616-2.7029 0.3398-3.6526 0.33-6.7873 1.7419-6.7873 0.5097 0 0.4806 1.7402 0.4806 3.694 0 1.9537-0.1708 2.4584-0.5106 2.8831s-0.2548 4.5049 0 4.5049h2.5528c0.2548 0 0.3397-4.0802 0-4.5049-0.3398-0.4247-0.5106-0.9294-0.5106-2.8831 0-1.9538-0.2394-3.694 0.2703-3.694 1.532 0 1.342 2.8043 1.6818 6.457 0.3398 3.6526 3.8571 3.748 5.556 3.1534 1.6989-0.5947 0.8745-3.0463 0.7208-3.3937-0.2299-0.52-1.2322-0.078899-1.862 0.3003-0.7277 0.4382-1.4485 0.9438-2.5528-0.3303-1.1043-1.2742-1.2013-13.922-1.2013-14.626 0-0.7034-2.793-0.6607-2.793-0.6607-0.070599-1.6217-0.2993-3.2435 0-4.8653-0.73 0.3993-1.1058 0.2317-1.4416 0zm0.7809 5.8564c0.8153 0 1.4716 0.1436 1.4716 0.3304v2.2824c0 0.1868-0.6563 0.3304-1.4716 0.3304s-1.4716-0.1436-1.4716-0.3304v-2.2824c0-0.1868 0.6563-0.3304 1.4716-0.3304z" opacity=".75"/>
   <path transform="rotate(20 22.334 108.33)" d="m21.79 58.129c-1.5046 6.8846 1.2825 4.1147 1.3815 5.4465l0.1502 94.962" opacity=".75"/>
   <path transform="rotate(20 134.79 109.26)" d="m134.25 59.054c-1.504 6.8847 1.283 4.1147 1.382 5.4465l0.15 94.961" opacity=".75"/>
   <path transform="rotate(-20 68.459 108.59)" d="m67.916 58.387c-1.5047 6.8847 1.2825 4.1147 1.3815 5.4465l0.1502 94.962" opacity=".75"/>
   <path transform="rotate(-20 181.12 109.08)" d="m180.58 58.872c-1.504 6.8847 1.283 4.1147 1.382 5.4465l0.15 94.962" opacity=".75"/>
  </g>
 </g>
</svg>
