<?xml version="1.0" encoding="UTF-8"?>
<svg enable-background="new 0 0 38.1 38.1" version="1.1" viewBox="0 0 38.1 38.1" xmlns="http://www.w3.org/2000/svg">
 <style type="text/css">.st0{fill:#00A5CB;} .st1{fill:#0190B0;} .st2{fill:#FFFFFF;} .st3{fill:#F2F2F2;}</style>
 <path class="st0" d="M19.2,37.8C8.8,37.8,0.3,29.4,0.3,19S8.8,0.1,19.2,0.1"/>
 <path class="st1" d="M19.2,0.1C29.6,0.1,38,8.6,38,19s-8.4,18.8-18.8,18.8"/>
 <path class="st3" d="m5.3 12.2h0.6v13.7c0 1.4 1.1 2.6 2.5 2.6 1.5 0 2.6-1.1 2.6-2.6v-13.7h0.5v-2.7h-6.2v2.7zm4.8 13.6v0.1-0.1zm0-0.3v-8.7h-2.2v9c0 0.5 0.2 0.8 0.6 1 0.6 0.3 1.4 0 1.6-0.7-0.1 0.7-0.6 1.2-1.3 1.3-0.8 0.2-1.6-0.2-1.8-1-0.1-0.2-0.1-0.4-0.1-0.6v-13.7h3.2v13.4z"/>
 <path class="st3" d="m16 12.2h0.6v13.7c0 1.4 1.1 2.6 2.5 2.6 1.5 0 2.6-1.1 2.6-2.6v-13.7h0.6v-2.7h-6.3v2.7zm4.8 13.6v0.1-0.1zm0-0.3v-8.7h-2.2v9c0 0.5 0.2 0.8 0.6 1 0.6 0.3 1.4 0 1.6-0.7-0.1 0.7-0.6 1.2-1.3 1.3-0.8 0.1-1.6-0.3-1.8-1.1-0.1-0.2-0.1-0.4-0.1-0.6v-13.7h3.2v13.5z"/>
 <path class="st3" d="m32.4 9.5h-6.3v2.6h0.6v13.7c0 1.4 1.1 2.6 2.5 2.6 1.5 0 2.6-1.1 2.6-2.6v-13.7h0.6v-2.6zm-1.5 16.3v0.1-0.1zm0-0.3v-8.7h-2.2v9c0 0.5 0.2 0.8 0.6 1 0.6 0.3 1.4 0 1.6-0.7-0.1 0.7-0.6 1.2-1.3 1.3-0.8 0.1-1.6-0.3-1.8-1.1-0.1-0.2-0.1-0.4-0.1-0.6v-13.7h3.2v13.5z"/>
</svg>
