<?xml version="1.0" encoding="utf-8"?>
<svg xmlns="http://www.w3.org/2000/svg" xmlns:xlink="http://www.w3.org/1999/xlink" version= "1.1" width="720px" height="1424px" viewBox="0 0 720 1424">
<g id="layer1">
<g style="fill:rgb(36,36,36); fill-opacity:1.0; stroke-linejoin: miter">
<path d="M217.22318,443.5277C217.2115,443.5277,217.19983,443.52808,217.18823,443.52887L217.18504,443.52887C210.52682,443.54846,205.43024,448.6906,205.43024,455.3529L205.43013,692.16345C205.43013,698.8384,210.54794,703.95514,217.22176,703.9706L217.22307,703.9706L621.7476,703.9559C628.4224,703.9559,633.54047,698.8384,633.54047,692.1636L633.54047,455.3521C633.54047,448.6878,628.4399,443.54285,621.7764,443.54285L621.7475,443.54285L217.22318,443.5277 Z"/>
</g>
<g style="fill:rgb(0,0,0); fill-opacity:1.0; stroke-linejoin: miter">
<path d="M217.22314,429.01276C202.7662,429.01282,190.9143,440.8944,190.9143,455.35187L190.91418,692.16345C190.91418,706.6198,202.7661,718.4719,217.22304,718.47186L621.74774,718.4869C636.20465,718.47205,648.0566,706.61993,648.05646,692.1636L648.05646,455.35315C648.05634,440.89575,636.20465,429.01398,621.7475,429.01398L217.22314,429.0285 Z M217.22314,444.07916L621.7475,444.0943C628.118,444.0794,632.98895,448.97986,632.98895,455.3521L632.9891,692.1636C632.9891,698.53394,628.118,703.4046,621.7476,703.4046L217.22304,703.4191C210.85257,703.4045,205.98157,698.5338,205.98157,692.16345L205.98169,455.3529C205.98169,448.98047,210.85278,444.08026,217.22314,444.0802 Z"/>
</g>
<g style="fill:rgb(0,0,0); fill-opacity:1.0; stroke-linejoin: miter">
<path d="M166.81567,722.8214C166.81566,738.7255,177.79811,751.5345,191.43549,751.5345L647.5352,751.54956C661.1722,751.5346,672.15497,738.7275,672.1551,722.8216L166.8156,722.83624 Z"/>
</g>
<g style="fill:rgb(36,36,36); fill-opacity:1.0; stroke-linejoin: miter">
<path d="M381.86252,728.8489L457.1218,728.8637C458.28302,728.8489,459.21786,729.7833,459.21786,730.9459C459.21786,732.1068,458.28302,733.04205,457.1218,733.04205L381.86252,733.057C380.70132,733.04205,379.76654,732.10785,379.76654,730.9459C379.76654,729.78516,380.70132,728.8489,381.86252,728.8489 Z"/>
</g>
<g>
<g style="fill:rgb(255,255,255); fill-opacity:1.0; stroke-linejoin: miter">
<path d="M534.4036,597.94257C518.58356,613.76276,500.14108,626.01355,479.58652,634.35535C459.73758,642.41205,438.7722,646.4965,417.26718,646.49664C395.76218,646.4965,374.79913,642.4119,354.9477,634.3554C334.39566,626.014,315.95322,613.7626,300.13452,597.9422C294.8426,592.6499,294.8426,584.07025,300.13455,578.7779C305.42648,573.48553,314.00696,573.4865,319.2986,578.7781C373.3183,632.7977,461.21594,632.7977,515.23566,578.77814C517.8819,576.1323,521.3499,574.80945,524.8182,574.80945C528.28644,574.80945,531.75397,576.1323,534.4006,578.77814C539.69257,584.07056,539.69257,592.6506,534.4006,597.94257 Z"/>
</g>
<g style="fill:rgb(255,255,255); fill-opacity:1.0; stroke-linejoin: miter">
<path d="M417.25143,598.512C384.06845,598.5119,352.8542,585.5739,329.3617,562.0811C324.0697,556.7887,324.06973,548.2091,329.36172,542.9167C334.65378,537.62476,343.23373,537.6247,348.5257,542.9167C386.42087,580.81226,448.08112,580.8123,485.97318,542.9167C488.61905,540.2709,492.0873,538.9482,495.55527,538.9482C499.02322,538.9482,502.49142,540.271,505.1373,542.91693C510.42923,548.20935,510.42923,556.7889,505.1373,562.0812C481.6439,585.57355,450.43002,598.512,417.2475,598.512 Z"/>
</g>
<g style="fill:rgb(255,255,255); fill-opacity:1.0; stroke-linejoin: miter">
<path d="M417.25143,549.5043C396.9711,549.50415,377.8943,541.59766,363.538,527.241C358.24594,521.9486,358.24597,513.369,363.53796,508.07666C368.82956,502.7851,377.40958,502.7851,382.70193,508.07666C401.75214,527.1269,432.75076,527.1269,451.80087,508.07678C454.44672,505.4311,457.91452,504.10828,461.38275,504.10822C464.85068,504.10822,468.31897,505.43085,470.9648,508.0766C476.2569,513.3691,476.2569,521.9488,470.96487,527.2411C456.60812,541.59796,437.5325,549.5043,417.25143,549.5043 Z"/>
</g>
<g style="fill:rgb(255,255,255); fill-opacity:1.0; stroke-linejoin: miter">
<path d="M428.45053,491.8199C428.45053,485.60443,423.41193,480.5658,417.19644,480.56592C410.98096,480.56592,405.94238,485.6045,405.94238,491.82C405.94238,498.03534,410.98093,503.07397,417.1964,503.07397C423.4119,503.0739,428.45053,498.03534,428.45053,491.8199 Z"/>
</g>
</g>
<g style="fill:rgb(0,0,0); fill-opacity:1.0; stroke-linejoin: miter">
<path d="M11.6183405,724.9298L58.209625,724.9307L104.80092,724.9312Q104.80089,777.79736,104.80084,830.6632Q58.209534,830.6641,11.618257,830.6646Q11.618302,777.79736,11.6183405,724.9298"/>
</g>
<g style="fill:rgb(0,0,0); fill-opacity:1.0; stroke-linejoin: miter">
<path d="M23.262064,794.32947L58.209564,794.3304L93.15707,794.33075Q93.157036,852.4176,93.157,910.5043Q58.209488,910.50525,23.261972,910.50586Q23.26201,852.41766,23.262064,794.32947"/>
</g>
<g style="fill:rgb(0,0,0); fill-opacity:1.0; stroke-linejoin: miter">
<path d="M91.86247,749.2924L91.55527,755.328Q89.37115,773.5676,78.77387,784.50336Q68.10324,795.4301,53.643074,793.3647Q39.84273,790.4781,31.568695,776.4719Q28.917603,771.9445,27.201305,766.60535L25.758808,761.1166Q24.570072,755.4514,24.55671,749.2924Q24.917595,730.3921,34.41345,717.84155Q43.90929,705.291,58.20965,704.8142Q72.51,705.29114,82.00582,717.8417Q91.50163,730.3921,91.86247,749.2924"/>
</g>
<g style="fill:rgb(0,0,0); fill-opacity:1.0; stroke-linejoin: miter">
<path d="M85.51322,876.28516L85.26393,883.5039Q83.49191,905.31934,74.89397,918.3988Q66.236534,931.4678,54.504547,928.99756Q43.307873,925.5449,36.594875,908.79285Q34.443954,903.3778,33.05147,896.9921L31.881119,890.42725Q30.916656,883.65125,30.905827,876.28503Q31.198627,853.67926,38.902912,838.6683Q46.607212,823.6574,58.209564,823.0871Q69.811905,823.65753,77.51619,838.6684Q85.22043,853.6794,85.51322,876.28516"/>
</g>
<g style="fill:rgb(0,0,0); fill-opacity:1.0; stroke-linejoin: miter">
<path d="M63.560646,923.6388L63.560646,923.6388L63.560646,923.6399C63.560646,923.7147,63.55948,923.78955,63.557137,923.8644L63.55713,923.8644C61.925537,975.9431,60.841698,1022.29114,65.276924,1029.6544L59.135902,1026.1844L59.13597,1026.1844L59.13597,1026.1844L59.136047,1026.1844L65.277115,1029.6545C65.42906,1029.9069,64.36572,1027.9816,61.626434,1027.8954L61.62925,1027.8955C61.569405,1027.8936,61.4909,1027.8927,61.462257,1027.8927L61.462257,1027.8927C59.691322,1027.8927,58.787476,1028.7535,58.914,1028.6439L58.91443,1028.6437C58.93306,1028.6276,59.110275,1028.4651,59.427017,1028.0571L59.427048,1028.057C61.394653,1025.5223,64.15147,1019.91614,68.400444,1011.1228L68.400444,1011.1228C75.626205,996.1687,86.031654,974.58655,101.22331,955.016L101.22331,955.016C119.446014,931.5408,145.14499,910.2064,181.37135,906.82837L181.37137,906.82837C184.90471,906.4989,188.51295,906.3434,192.18642,906.3434L192.18642,906.3434C227.03326,906.3434,269.93024,920.47253,316.9851,935.87573L316.9851,935.87573C380.1802,956.5625,452.5024,980.1802,529.4196,980.1802L529.4196,980.1802L529.62897,980.1802L529.62506,980.1802C650.4516,980.1139,770.18726,924.0281,770.1699,892.51294L770.1699,892.513C770.1676,888.0973,767.30206,882.2844,755.4184,876.436L755.4184,876.436C698.41583,848.38257,494.0698,847.2475,373.53433,846.7067L373.53433,846.7067C342.96616,846.5696,317.973,846.45856,302.76523,845.8979L302.76523,845.8979C296.8348,845.67926,276.30582,846.5649,276.69772,835.9338L276.69772,835.93384C276.892,830.6614,282.06738,828.6772,281.81216,828.80054L284.9309,835.25555L284.9309,835.25555L281.8124,828.80035C287.54407,826.0314,307.40756,822.87317,328.17447,819.4722L328.17447,819.4722C362.71024,813.81635,402.8595,807.10834,414.6626,800.4557L414.6626,800.4557C418.24753,798.43506,414.66296,799.46246,416.15942,802.11755L416.15942,802.11755C416.1634,802.12463,416.16727,802.13086,416.16714,802.1307L415.83972,801.54596L415.83954,801.54553L416.1666,802.1297C412.909,796.89984,388.772,789.16125,361.48093,781.0668L361.48093,781.0668C345.52032,776.33295,328.8648,771.4877,322.17612,767.08514L322.17606,767.08514C319.80988,765.5277,313.33594,760.0628,317.99435,752.985L317.99454,752.98474C318.9093,751.595,320.06528,750.6095,321.04788,749.92615L325.14084,748.64294L325.14096,748.64294L321.0484,749.9259C333.22214,741.4617,394.38892,738.9272,449.84924,736.30804C453.80417,736.1213,457.16168,739.17596,457.34845,743.13086C457.53522,747.0858,454.48053,750.44336,450.5256,750.6301L450.5256,750.6301C390.8733,753.44714,336.92682,756.349,329.2335,761.69806L325.14096,762.981L325.14084,762.981L329.23383,761.6978C329.18173,761.734,329.56012,761.4922,329.97092,760.86804L329.9711,760.8678C332.97757,756.29987,327.7693,753.6014,330.0591,755.1086L330.05905,755.1086C334.451,757.99927,348.08395,762.1378,365.55798,767.32056L365.55798,767.32056C388.3313,774.0751,421.31662,783.2786,428.33685,794.5492L428.6639,795.13336L428.6641,795.1337L428.33667,794.549C428.4457,794.724,428.54733,794.89514,428.6501,795.0774L428.6501,795.0774C433.23843,803.218,427.5002,809.67865,421.70282,812.9462L421.70282,812.9462C407.02136,821.2213,363.0797,828.2849,330.4917,833.6218L330.4917,833.6218C307.801,837.3378,291.31754,840.13196,288.04944,841.71075L284.9309,835.25555L284.9309,835.25555L288.04965,841.71063C286.41522,842.5003,290.8535,841.1451,291.0261,836.46185L291.0261,836.4619C291.33148,828.177,282.04904,830.78656,303.2934,831.56964L303.2934,831.56964C318.20627,832.1193,342.90244,832.23114,373.59863,832.36884L373.59863,832.36884C491.49142,832.89777,700.8875,833.6186,761.7496,863.5715L761.7496,863.5715C775.75305,870.46313,784.5012,880.09845,784.50806,892.50507L784.50806,892.5051C784.5343,940.44165,645.44476,994.45483,529.6329,994.5182L529.62897,994.5182L529.4196,994.5182L529.4196,994.5182C449.868,994.5182,375.4335,970.09534,312.52448,949.5023L312.52448,949.5023C264.59076,933.8113,224.21466,920.6814,192.18642,920.6814L192.18642,920.6814C188.91588,920.6814,185.7543,920.81995,182.7026,921.1045L182.70262,921.1045C151.91193,923.9758,129.44328,942.0447,112.54947,963.808L112.54947,963.808C98.406715,982.0272,88.58532,1002.30505,81.31039,1017.36084L81.31039,1017.36084C77.45797,1025.3335,73.901184,1032.7938,70.75312,1036.8491L70.75315,1036.849C70.03465,1037.7747,69.22109,1038.6852,68.30087,1039.4822L68.30129,1039.4819C66.87063,1040.7211,64.54097,1042.2308,61.46225,1042.2308L61.46225,1042.2308C61.36812,1042.2308,61.297623,1042.2302,61.172485,1042.2262L61.17531,1042.2263C56.725433,1042.0863,54.159355,1038.9856,52.994972,1037.0524L59.13604,1040.5225L59.135963,1040.5225L59.135963,1040.5225L59.135895,1040.5225L52.994865,1037.0525C45.67837,1024.9059,47.7261,971.2943,49.226105,923.4154L49.22258,923.6399L49.22258,923.6388C49.22258,919.67944,52.432266,916.4697,56.391617,916.4697C60.35096,916.4697,63.560646,919.67944,63.560646,923.6388 Z"/>
</g>
</g>
</svg>