<?xml version="1.0" encoding="UTF-8"?>
<svg enable-background="new 0 0 38.1 38.1" version="1.1" viewBox="0 0 38.1 38.1" xmlns="http://www.w3.org/2000/svg">
 <style type="text/css">.st0{fill:#00A5CB;} .st1{fill:#0190B0;} .st2{fill:#FFFFFF;} .st3{fill:#F2F2F2;}</style>
 <path class="st0" d="M19,37.8C8.6,37.8,0.2,29.4,0.2,19S8.6,0.1,19,0.1"/>
 <path class="st1" d="M19,0.1c10.4,0,18.8,8.4,18.8,18.8S29.4,37.8,19,37.8"/>
 <ellipse class="st2" cx="15.6" cy="7.9" rx="1.9" ry="2"/>
 <ellipse class="st2" cx="23.6" cy="7.9" rx="1.9" ry="2"/>
 <path class="st2" d="m26.1 11.1h-5.1c-1.2 0-1.8 0.5-2 1.1-0.3-0.8-0.5-1.1-1.4-1.1h-4.7c-1.1 0-1.3 0.8-1.6 1.8 0 0-1.4 6.3-1.5 6.6-0.3 0.7 0.7 1.3 1.2 0 0.7-2.3 1.5-4.5 1.5-4.5 0.3-0.6 0.7-0.4 0.5 0l-2 8.1 2-0.1v8.1c0 1 4.1 1.1 4.6 0.2v-4.8h-1.3l1.3-5c0.1-0.3-0.2-0.4-0.3 0 0 0-0.5 1.4-0.9 2.8-0.3 0.8-1 0.5-0.8 0 0.1-0.2 1-4.1 1-4.1 0.2-0.6 0.3-1.1 1-1.1h3c0.7 0 0.7 0.3 1 1.1l1 4.1c0.2 0.5-0.6 0.8-0.8 0l-0.8-2.7c-0.2-0.3-0.4-0.2-0.4 0l1.4 5h-1.2v4.6c0 1.1 5.3 1.1 5.3 0v-16.2c0.3-0.5 0.5-0.5 0.8 0v5.2c0.3 1.2 1.3 0.6 1.5 0.1v-7.4c-0.2-1.5-1.1-1.8-2.3-1.8zm-7.1 7.2c-0.9 0-1.7-0.8-1.7-1.7 0-1 0.7-1.7 1.7-1.7 0.9 0 1.7 0.8 1.7 1.7s-0.8 1.7-1.7 1.7z"/>
</svg>
