<?xml version='1.0' encoding='utf-8'?>
<svg xmlns="http://www.w3.org/2000/svg" width="327.94864mm" height="177.81496mm" viewBox="0 0 1162.0227 630.05299" id="svg2" version="1.1"> <defs id="defs4"> <filter style="color-interpolation-filters:sRGB" id="filter4265"> <feGaussianBlur stdDeviation="5" result="fbSourceGraphic" id="feGaussianBlur4267"/> <feGaussianBlur stdDeviation="0.01" in="SourceGraphic" result="result1" id="feGaussianBlur4269"/> <feComposite in2="result1" operator="arithmetic" in="fbSourceGraphic" k2="0.5" k3="0.5" result="result2" id="feComposite4271" k1="0" k4="0"/> <feBlend in2="fbSourceGraphic" mode="normal" result="result3" id="feBlend4273"/> </filter> <filter style="color-interpolation-filters:sRGB" id="filter4283"> <feGaussianBlur stdDeviation="5" result="fbSourceGraphic" id="feGaussianBlur4285"/> <feGaussianBlur stdDeviation="0.01" in="SourceGraphic" result="result1" id="feGaussianBlur4287"/> <feComposite in2="result1" operator="arithmetic" in="fbSourceGraphic" k2="0.5" k3="0.5" result="result2" id="feComposite4289" k1="0" k4="0"/> <feBlend in2="fbSourceGraphic" mode="normal" result="result3" id="feBlend4291"/> </filter> <filter style="color-interpolation-filters:sRGB" id="filter4299"> <feGaussianBlur stdDeviation="5" result="fbSourceGraphic" id="feGaussianBlur4301"/> <feGaussianBlur stdDeviation="0.01" in="SourceGraphic" result="result1" id="feGaussianBlur4303"/> <feComposite in2="result1" operator="arithmetic" in="fbSourceGraphic" k2="0.5" k3="0.5" result="result2" id="feComposite4305" k1="0" k4="0"/> <feBlend in2="fbSourceGraphic" mode="normal" result="result3" id="feBlend4307"/> </filter> </defs> <metadata id="metadata7"> </metadata> <g id="layer1" transform="translate(166.14391,-186.39)"> <g id="g4378"> <rect ry="2.9068756" y="186.39" x="-166.14391" height="630.05298" width="1162.0227" id="rect4376" style="color:#000000;clip-rule:nonzero;display:inline;overflow:visible;visibility:visible;opacity:1;isolation:auto;mix-blend-mode:normal;color-interpolation:sRGB;color-interpolation-filters:linearRGB;solid-color:#000000;solid-opacity:1;fill:#ffffff;fill-opacity:1;fill-rule:nonzero;stroke:none;stroke-width:1.87199998;stroke-linecap:butt;stroke-linejoin:miter;stroke-miterlimit:4;stroke-dasharray:none;stroke-dashoffset:0;stroke-opacity:1;color-rendering:auto;image-rendering:auto;shape-rendering:auto;text-rendering:auto;enable-background:accumulate"/> <path id="circle4144-2-7" d="m 636.92651,390.93004 a 105,105 0 0 0 -105,105.00001 105,105 0 0 0 89.8204,103.79687 l 0,58.29492 -46.0176,0 c -1.6411,0 -2.961,1.32181 -2.961,2.96289 l 0,24.43164 c 0,1.64108 1.3199,2.96289 2.961,2.96289 l 46.0176,0 0,48.16016 c 0,1.64108 1.3218,2.96289 2.9628,2.96289 l 24.4317,0 c 1.6411,0 2.9629,-1.32181 2.9629,-2.96289 l 0,-48.16016 46.0176,0 c 1.641,0 2.9628,-1.32181 2.9628,-2.96289 l 0,-24.43164 c 0,-1.64108 -1.3218,-2.96289 -2.9628,-2.96289 l -46.0176,0 0,-58.32617 a 105,105 0 0 0 89.8222,-103.76562 105,105 0 0 0 -105,-105.00001 z m 0,30 a 75,75 0 0 1 75,75.00001 75,75 0 0 1 -75,75 75,75 0 0 1 -75,-75 75,75 0 0 1 75,-75.00001 z" style="color:#000000;clip-rule:nonzero;display:inline;overflow:visible;visibility:visible;opacity:1;isolation:auto;mix-blend-mode:normal;color-interpolation:sRGB;color-interpolation-filters:linearRGB;solid-color:#000000;solid-opacity:1;fill:#e91e63;fill-opacity:1;fill-rule:nonzero;stroke:none;stroke-width:1.87199998;stroke-linecap:butt;stroke-linejoin:miter;stroke-miterlimit:4;stroke-dasharray:none;stroke-dashoffset:0;stroke-opacity:1;color-rendering:auto;image-rendering:auto;shape-rendering:auto;text-rendering:auto;enable-background:accumulate"/> <path id="path4136-6-5" d="m 664.44991,497.5045 a 105,105 0 0 0 148.4926,0 105,105 0 0 0 9.8815,-136.90943 l 53.9956,-53.99558 0,40.33817 c 0,1.64114 1.3213,2.96244 2.9624,2.96242 l 24.4338,-3e-5 c 1.6412,6e-5 2.9625,-1.32125 2.9624,-2.96239 l 10e-5,-87.79437 c 0,-1.0784 -0.5768,-2.0094 -1.4336,-2.5274 -0.5181,-0.8569 -1.4477,-1.4323 -2.526,-1.4322 l -87.7945,0 c -1.6411,0 -2.9624,1.3213 -2.9623,2.9624 l 0,24.4325 c 0,1.6411 1.3213,2.9624 2.9623,2.9623 l 39.5235,1e-4 -53.6103,53.61025 a 105,105 0 0 0 -136.8861,9.86084 105,105 0 0 0 0,148.49242 z m 21.2132,-21.2132 a 75,75 0 0 1 0,-106.06602 75,75 0 0 1 106.0661,0 75,75 0 0 1 0,106.06602 75,75 0 0 1 -106.0661,0 z" style="color:#000000;clip-rule:nonzero;display:inline;overflow:visible;visibility:visible;opacity:1;isolation:auto;mix-blend-mode:normal;color-interpolation:sRGB;color-interpolation-filters:linearRGB;solid-color:#000000;solid-opacity:1;fill:#2196f3;fill-opacity:1;fill-rule:nonzero;stroke:none;stroke-width:1.87199998;stroke-linecap:butt;stroke-linejoin:miter;stroke-miterlimit:4;stroke-dasharray:none;stroke-dashoffset:0;stroke-opacity:1;color-rendering:auto;image-rendering:auto;shape-rendering:auto;text-rendering:auto;enable-background:accumulate"/> <path style="color:#000000;clip-rule:nonzero;display:inline;overflow:visible;visibility:visible;opacity:1;isolation:auto;mix-blend-mode:normal;color-interpolation:sRGB;color-interpolation-filters:linearRGB;solid-color:#000000;solid-opacity:1;fill:#e91e63;fill-opacity:1;fill-rule:nonzero;stroke:none;stroke-width:1.87199998;stroke-linecap:butt;stroke-linejoin:miter;stroke-miterlimit:4;stroke-dasharray:none;stroke-dashoffset:0;stroke-opacity:1;color-rendering:auto;image-rendering:auto;shape-rendering:auto;text-rendering:auto;enable-background:accumulate" d="M 4.5710077,390.93004 A 105,105 0 0 0 -100.42899,495.93005 105,105 0 0 0 -10.608592,599.72692 l 0,58.29492 -46.0176,0 c -1.6411,0 -2.961,1.32181 -2.961,2.96289 l 0,24.43164 c 0,1.64108 1.3199,2.96289 2.961,2.96289 l 46.0176,0 0,48.16016 c 0,1.64108 1.3217997,2.96289 2.9627997,2.96289 l 24.4317003,0 c 1.6411,0 2.9629,-1.32181 2.9629,-2.96289 l 0,-48.16016 46.0176,0 c 1.641,0 2.9628,-1.32181 2.9628,-2.96289 l 0,-24.43164 c 0,-1.64108 -1.3218,-2.96289 -2.9628,-2.96289 l -46.0176,0 0,-58.32617 A 105,105 0 0 0 109.57101,495.93005 105,105 0 0 0 4.5710077,390.93004 Z m 0,30 a 75,75 0 0 1 75.0000003,75.00001 75,75 0 0 1 -75.0000003,75 75,75 0 0 1 -74.9999997,-75 75,75 0 0 1 74.9999997,-75.00001 z" id="path4227-5"/> <path style="color:#000000;clip-rule:nonzero;display:inline;overflow:visible;visibility:visible;opacity:1;isolation:auto;mix-blend-mode:normal;color-interpolation:sRGB;color-interpolation-filters:linearRGB;solid-color:#000000;solid-opacity:1;fill:#2196f3;fill-opacity:1;fill-rule:nonzero;stroke:none;stroke-width:1.87199998;stroke-linecap:butt;stroke-linejoin:miter;stroke-miterlimit:4;stroke-dasharray:none;stroke-dashoffset:0;stroke-opacity:1;color-rendering:auto;image-rendering:auto;shape-rendering:auto;text-rendering:auto;enable-background:accumulate" d="m 173.51571,497.5045 a 105,105 0 0 0 148.4925,0 105,105 0 0 0 9.8815,-136.90943 l 53.9956,-53.99558 0,40.33817 c 0,1.64114 1.3213,2.96244 2.9624,2.96242 l 24.4338,-3e-5 c 1.6412,6e-5 2.9625,-1.32125 2.9624,-2.96239 l 10e-5,-87.79437 c 0,-1.0784 -0.5768,-2.0094 -1.4336,-2.5274 -0.5181,-0.8569 -1.4477,-1.4323 -2.526,-1.4322 l -87.7945,0 c -1.6411,0 -2.9624,1.3213 -2.9623,2.9624 l 0,24.4325 c 0,1.6411 1.3213,2.9624 2.9623,2.9623 l 39.5235,1e-4 -53.6103,53.61025 a 105,105 0 0 0 -136.886,9.86084 105,105 0 0 0 0,148.49242 z m 21.2132,-21.2132 a 75,75 0 0 1 0,-106.06602 75,75 0 0 1 106.0661,0 75,75 0 0 1 0,106.06602 75,75 0 0 1 -106.0661,0 z" id="path4229-7"/> <path id="path4259-4" d="M 4.5710077,390.93004 A 105,105 0 0 0 -100.42899,495.93005 105,105 0 0 0 -10.608592,599.72692 l 0,58.29492 -46.0176,0 c -1.6411,0 -2.961,1.32181 -2.961,2.96289 l 0,24.43164 c 0,1.64108 1.3199,2.96289 2.961,2.96289 l 46.0176,0 0,48.16016 c 0,1.64108 1.3217997,2.96289 2.9627997,2.96289 l 24.4317003,0 c 1.6411,0 2.9629,-1.32181 2.9629,-2.96289 l 0,-48.16016 46.0176,0 c 1.641,0 2.9628,-1.32181 2.9628,-2.96289 l 0,-24.43164 c 0,-1.64108 -1.3218,-2.96289 -2.9628,-2.96289 l -46.0176,0 0,-58.32617 A 105,105 0 0 0 109.57101,495.93005 105,105 0 0 0 4.5710077,390.93004 Z m 0,30 a 75,75 0 0 1 75.0000003,75.00001 75,75 0 0 1 -75.0000003,75 75,75 0 0 1 -74.9999997,-75 75,75 0 0 1 74.9999997,-75.00001 z" style="color:#000000;clip-rule:nonzero;display:inline;overflow:visible;visibility:visible;opacity:1;isolation:auto;mix-blend-mode:normal;color-interpolation:sRGB;color-interpolation-filters:linearRGB;solid-color:#000000;solid-opacity:1;fill:#e91e63;fill-opacity:1;fill-rule:nonzero;stroke:none;stroke-width:1.87199998;stroke-linecap:butt;stroke-linejoin:miter;stroke-miterlimit:4;stroke-dasharray:none;stroke-dashoffset:0;stroke-opacity:1;color-rendering:auto;image-rendering:auto;shape-rendering:auto;text-rendering:auto;enable-background:accumulate"/> <rect ry="2.96224" y="216.53416" x="461.92944" height="579.82758" width="14.142136" id="rect4362" style="color:#000000;clip-rule:nonzero;display:inline;overflow:visible;visibility:visible;opacity:1;isolation:auto;mix-blend-mode:normal;color-interpolation:sRGB;color-interpolation-filters:linearRGB;solid-color:#000000;solid-opacity:1;fill:#4db6ac;fill-opacity:1;fill-rule:nonzero;stroke:none;stroke-width:1.87199998;stroke-linecap:butt;stroke-linejoin:miter;stroke-miterlimit:4;stroke-dasharray:none;stroke-dashoffset:0;stroke-opacity:1;color-rendering:auto;image-rendering:auto;shape-rendering:auto;text-rendering:auto;enable-background:accumulate"/> <path id="path4364" d="m 638.90231,390.99999 a 105,105 0 0 0 -5.0371,30.03711 75,75 0 0 1 3.0606,-0.10742 75,75 0 0 1 26.9043,5.08008 75,75 0 0 1 5.0449,-29.97071 105,105 0 0 0 -29.9727,-5.03906 z" style="color:#000000;clip-rule:nonzero;display:inline;overflow:visible;visibility:visible;opacity:1;isolation:auto;mix-blend-mode:normal;color-interpolation:sRGB;color-interpolation-filters:linearRGB;solid-color:#000000;solid-opacity:1;fill:#e91e63;fill-opacity:1;fill-rule:nonzero;stroke:none;stroke-width:1.87199998;stroke-linecap:butt;stroke-linejoin:miter;stroke-miterlimit:4;stroke-dasharray:none;stroke-dashoffset:0;stroke-opacity:1;color-rendering:auto;image-rendering:auto;shape-rendering:auto;text-rendering:auto;enable-background:accumulate"/> <path style="color:#000000;clip-rule:nonzero;display:inline;overflow:visible;visibility:visible;opacity:1;isolation:auto;mix-blend-mode:normal;color-interpolation:sRGB;color-interpolation-filters:linearRGB;solid-color:#000000;solid-opacity:1;fill:#e91e63;fill-opacity:1;fill-rule:nonzero;stroke:none;stroke-width:1.87199998;stroke-linecap:butt;stroke-linejoin:miter;stroke-miterlimit:4;stroke-dasharray:none;stroke-dashoffset:0;stroke-opacity:1;color-rendering:auto;image-rendering:auto;shape-rendering:auto;text-rendering:auto;enable-background:accumulate" d="m 638.90231,390.99999 a 105,105 0 0 0 -5.0371,30.03711 75,75 0 0 1 3.0606,-0.10742 75,75 0 0 1 26.9043,5.08008 75,75 0 0 1 5.0449,-29.97071 105,105 0 0 0 -29.9727,-5.03906 z" id="path4372"/> <path id="path4374" d="m 638.57241,390.94483 c -3.1299,9.71435 -4.8875,19.87714 -5.0978,30.08111 1.0193,-0.0566 2.4304,-0.0813 3.4512,-0.0963 9.2038,0.0282 18.3239,1.75024 26.9043,5.08008 -0.3814,-10.22984 1.3355,-20.42946 5.0449,-29.97071 -9.6936,-3.12443 -19.589,-4.85586 -29.7714,-5.07302 z" style="color:#000000;clip-rule:nonzero;display:inline;overflow:visible;visibility:visible;opacity:1;isolation:auto;mix-blend-mode:normal;color-interpolation:sRGB;color-interpolation-filters:linearRGB;solid-color:#000000;solid-opacity:1;fill:#e91e63;fill-opacity:1;fill-rule:nonzero;stroke:none;stroke-width:1.87199998;stroke-linecap:butt;stroke-linejoin:miter;stroke-miterlimit:4;stroke-dasharray:none;stroke-dashoffset:0;stroke-opacity:1;color-rendering:auto;image-rendering:auto;shape-rendering:auto;text-rendering:auto;enable-background:accumulate"/> </g> </g> </svg>